<?xml version="1.0" standalone="no"?>
<!DOCTYPE svg PUBLIC "-//W3C//DTD SVG 1.1//EN" "http://www.w3.org/Graphics/SVG/1.1/DTD/svg11.dtd" >
<svg xmlns="http://www.w3.org/2000/svg">
<metadata>Generated by IcoMoon</metadata>
<defs>
<font id="icomoon" horiz-adv-x="1024">
<font-face units-per-em="1024" ascent="960" descent="-64" />
<missing-glyph horiz-adv-x="1024" />
<glyph unicode="&#x20;" horiz-adv-x="512" d="" />
<glyph unicode="&#xe600;" glyph-name="table" d="M0 896v-896h1024v896h-1024zM384 320v192h256v-192h-256zM640 256v-192h-256v192h256zM640 768v-192h-256v192h256zM320 768v-192h-256v192h256zM64 512h256v-192h-256v192zM704 512h256v-192h-256v192zM704 576v192h256v-192h-256zM64 256h256v-192h-256v192zM704 64v192h256v-192h-256z" />
<glyph unicode="&#xe601;" glyph-name="sign-out" d="M640 192h-256v576l-256 128h512v-192h64v256h-704v-832l384-192v192h320v320h-64v-256zM1024 576l-256 192v-128h-256v-128h256v-128l256 192z" />
<glyph unicode="&#xe602;" glyph-name="type" d="M896 960h-768c-17.664 0-32-14.336-32-32v-192c0-17.664 14.336-32 32-32h32c17.664 0 32 14.336 32 32l64 96h192v-768l-160-64c-17.664 0-32-14.304-32-32s14.336-32 32-32h448c17.696 0 32 14.304 32 32s-14.304 32-32 32l-160 64v768h192l64-96c0-17.664 14.304-32 32-32h32c17.696 0 32 14.336 32 32v192c0 17.664-14.304 32-32 32z" />
<glyph unicode="&#xe603;" glyph-name="move" d="M575.488 770.528v-258.016h256v128l192.512-192.512-192.512-192.48v130.976h-256v-258.016h128.992l-192.48-192.48-192.512 192.48h128v258.016h-256v-129.984l-191.488 191.488 191.488 191.488v-126.976h256v258.016h-124.992l189.504 189.472 189.504-189.472h-126.016z" />
<glyph unicode="&#xe604;" glyph-name="menu" horiz-adv-x="1408" d="M0 768h896v-192h-896v192zM0 512h896v-192h-896v192zM0 256h896v-192h-896v192zM992 512l192-192 192 192z" />
<glyph unicode="&#xe605;" glyph-name="align-vertical-middle" d="M512 358.4l-153.6-153.6h102.4v-204.8h102.4v204.8h102.4l-153.6 153.6zM665.6 716.8h-102.4v204.8h-102.4v-204.8h-102.4l153.6-153.6 153.6 153.6zM921.6 460.8c0 28.314-2.458 51.2-30.72 51.2h-757.76c-28.262 0-30.72-22.886-30.72-51.2 0-28.211 2.458-51.2 30.72-51.2h757.76c28.262 0 30.72 22.989 30.72 51.2z" />
<glyph unicode="&#xe606;" glyph-name="align-horizontal-middle" d="M409.6 460.8l-153.6 153.6v-102.4h-204.8v-102.4h204.8v-102.4l153.6 153.6zM768 307.2v102.4h204.8v102.4h-204.8v102.4l-153.6-153.6 153.6-153.6zM512 51.2c28.314 0 51.2 2.509 51.2 30.72v757.76c0 28.314-22.886 30.72-51.2 30.72-28.262 0-51.2-2.406-51.2-30.72v-757.76c0-28.211 22.938-30.72 51.2-30.72z" />
<glyph unicode="&#xe607;" glyph-name="align-top" d="M512 665.6l-153.6-153.6h102.4v-409.6h102.4v409.6h102.4l-153.6 153.6zM921.6 768c0 28.314-2.458 51.2-30.72 51.2h-757.76c-28.262 0-30.72-22.886-30.72-51.2s2.458-51.2 30.72-51.2h757.76c28.262 0 30.72 22.886 30.72 51.2z" />
<glyph unicode="&#xe608;" glyph-name="align-left2" d="M307.2 460.8l153.6-153.6v102.4h409.6v102.4h-409.6v102.4l-153.6-153.6zM204.8 870.4c-28.314 0-51.2-2.406-51.2-30.72v-757.76c0-28.211 22.886-30.72 51.2-30.72 28.262 0 51.2 2.509 51.2 30.72v757.76c0 28.314-22.938 30.72-51.2 30.72z" />
<glyph unicode="&#xe609;" glyph-name="align-bottom" d="M665.6 409.6h-102.4v409.6h-102.4v-409.6h-102.4l153.6-153.6 153.6 153.6zM890.88 204.8h-757.76c-28.262 0-30.72-22.886-30.72-51.2s2.458-51.2 30.72-51.2h757.76c28.262 0 30.72 22.886 30.72 51.2s-2.458 51.2-30.72 51.2z" />
<glyph unicode="&#xe60a;" glyph-name="align-right2" d="M563.2 614.4v-102.4h-409.6v-102.4h409.6v-102.4l153.6 153.6-153.6 153.6zM768 839.68v-757.76c0-28.211 22.938-30.72 51.2-30.72 28.314 0 51.2 2.509 51.2 30.72v757.76c0 28.314-22.886 30.72-51.2 30.72-28.262 0-51.2-2.406-51.2-30.72z" />
<glyph unicode="&#xe60b;" glyph-name="pencil" d="M28.885-36.437c6.4-6.4 16.128-8.192 24.619-4.011l227.584 113.792-142.421 142.464-113.792-227.627c-4.096-8.192-2.475-18.133 4.011-24.619zM945.152 728.96l45.269 45.269c41.6 41.6 41.6 109.269 0 150.827-20.139 20.096-46.933 31.232-75.435 31.232s-55.296-11.136-75.435-31.232l-45.269-45.269 150.869-150.827zM914.987 698.795l-599.467-599.467-150.827 150.827 599.467 599.467z" />
<glyph unicode="&#xe60c;" glyph-name="pen-tablet" d="M551.552 600.405l-115.499 38.485c-7.68 2.645-16.128 0.597-21.845-5.12-5.675-5.76-7.68-14.208-5.12-21.888l38.485-115.456 103.979 103.979zM999.083 164.437l-411.605 411.563-115.499-115.499 411.563-411.563c15.445-15.488 35.925-23.979 57.771-23.979s42.325 8.491 57.728 23.936c15.445 15.36 23.936 35.883 23.936 57.728 0 21.803-8.491 42.325-23.893 57.813zM917.333 960h-810.667c-58.795 0-106.667-47.872-106.667-106.667v-512c0-58.795 47.872-106.667 106.667-106.667h530.816l-85.333 85.333h-232.149c-11.776 0-21.333 9.557-21.333 21.333v512c0 11.776 9.557 21.333 21.333 21.333h597.333c11.776 0 21.333-9.557 21.333-21.333v-512c0-11.776-9.557-21.333-21.333-21.333h-13.525l69.205-69.205c30.464 18.773 50.987 52.224 50.987 90.539v512c0 58.795-47.872 106.667-106.667 106.667zM256 341.333c0-11.776-9.557-21.333-21.333-21.333h-128c-11.819 0-21.333 9.557-21.333 21.333v106.667h170.667v-106.667zM256 490.667h-170.667v85.333h170.667v-85.333zM256 618.667h-170.667v85.333h170.667v-85.333zM256 746.667h-170.667v106.667c0 11.776 9.515 21.333 21.333 21.333h128c11.776 0 21.333-9.557 21.333-21.333v-106.667z" />
<glyph unicode="&#xe60d;" glyph-name="paperclip" d="M570.069 164.267c-14.976-18.219-12.288-45.099 5.931-60.032s45.099-12.331 60.032 5.931l325.205 396.587c96.939 118.229 79.659 293.333-38.613 390.272-57.259 46.976-129.365 68.864-203.136 61.568-73.728-7.339-140.203-42.923-187.179-100.181l-459.093-559.872c-74.581-90.965-61.269-225.664 29.696-300.245 39.595-32.469 87.424-48.256 135.040-48.256 61.781 0 123.093 26.667 165.248 78.037l439.125 537.216c44.715 54.571 36.736 135.381-17.835 180.139-26.411 21.717-59.648 31.744-93.781 28.373-34.005-3.285-64.725-19.712-86.357-46.165l-325.205-396.672c-14.933-18.176-12.288-45.056 5.931-60.032 18.219-14.933 45.099-12.288 60.032 5.931l325.248 396.629c7.211 8.789 17.451 14.251 28.757 15.36 11.477 1.152 22.443-2.219 31.232-9.429 18.219-14.933 20.864-41.856 5.931-60.117l-439.083-537.173c-44.757-54.613-125.611-62.635-180.181-17.835-54.571 44.757-62.592 125.568-17.835 180.139l459.136 559.915c32.512 39.68 78.507 64.299 129.579 69.333 51.115 5.035 100.992-10.069 140.629-42.624 81.835-67.157 93.824-188.331 26.709-270.208l-325.163-396.587z" />
<glyph unicode="&#xe60e;" glyph-name="new-square" d="M512 192h-426.667v682.667h682.667v-426.667c0-23.552 19.115-42.667 42.667-42.667s42.667 19.115 42.667 42.667v469.333c0 23.552-19.115 42.667-42.667 42.667h-768c-23.552 0-42.667-19.115-42.667-42.667v-768c0-23.552 19.115-42.667 42.667-42.667h469.333c23.552 0 42.667 19.115 42.667 42.667s-19.115 42.667-42.667 42.667zM981.333 192h-128v128c0 23.552-19.115 42.667-42.667 42.667s-42.667-19.115-42.667-42.667v-128h-128c-23.552 0-42.667-19.115-42.667-42.667s19.115-42.667 42.667-42.667h128v-128c0-23.552 19.115-42.667 42.667-42.667s42.667 19.115 42.667 42.667v128h128c23.552 0 42.667 19.115 42.667 42.667s-19.115 42.667-42.667 42.667z" />
<glyph unicode="&#xe610;" glyph-name="navigation-show-more-1" d="M256 448c0-70.692-57.308-128-128-128s-128 57.308-128 128c0 70.692 57.308 128 128 128s128-57.308 128-128zM640 448c0-70.692-57.308-128-128-128s-128 57.308-128 128c0 70.692 57.308 128 128 128s128-57.308 128-128zM1024 448c0-70.692-57.308-128-128-128s-128 57.308-128 128c0 70.692 57.308 128 128 128s128-57.308 128-128z" />
<glyph unicode="&#xe611;" glyph-name="text-height" d="M896 192h128l-160-192-160 192h128v512h-128l160 192 160-192h-128zM640 896v-256l-64 128h-192v-704h128v-64h-384v64h128v704h-192l-64-128v256z" />
<glyph unicode="&#xe612;" glyph-name="minus-front" d="M661.333 917.333h21.333v-21.333c0-11.776 9.557-21.333 21.333-21.333s21.333 9.557 21.333 21.333v42.667c0 11.776-9.557 21.333-21.333 21.333h-42.667c-11.776 0-21.333-9.557-21.333-21.333s9.557-21.333 21.333-21.333zM64 960h-42.667c-11.776 0-21.333-9.557-21.333-21.333v-42.667c0-11.776 9.557-21.333 21.333-21.333s21.333 9.557 21.333 21.333v21.333h21.333c11.776 0 21.333 9.557 21.333 21.333s-9.557 21.333-21.333 21.333zM704 832c-11.776 0-21.333-9.557-21.333-21.333v-42.667c0-11.776 9.557-21.333 21.333-21.333s21.333 9.557 21.333 21.333v42.667c0 11.776-9.557 21.333-21.333 21.333zM533.333 917.333h42.667c11.776 0 21.333 9.557 21.333 21.333s-9.557 21.333-21.333 21.333h-42.667c-11.776 0-21.333-9.557-21.333-21.333s9.557-21.333 21.333-21.333zM405.333 917.333h42.667c11.776 0 21.333 9.557 21.333 21.333s-9.557 21.333-21.333 21.333h-42.667c-11.776 0-21.333-9.557-21.333-21.333s9.557-21.333 21.333-21.333zM277.333 917.333h42.667c11.776 0 21.333 9.557 21.333 21.333s-9.557 21.333-21.333 21.333h-42.667c-11.776 0-21.333-9.557-21.333-21.333s9.557-21.333 21.333-21.333zM192 960h-42.667c-11.776 0-21.333-9.557-21.333-21.333s9.557-21.333 21.333-21.333h42.667c11.776 0 21.333 9.557 21.333 21.333s-9.557 21.333-21.333 21.333zM192 277.333h-42.667c-11.776 0-21.333-9.557-21.333-21.333s9.557-21.333 21.333-21.333h42.667c11.776 0 21.333 9.557 21.333 21.333s-9.557 21.333-21.333 21.333zM64 277.333h-21.333v21.333c0 11.776-9.557 21.333-21.333 21.333s-21.333-9.557-21.333-21.333v-42.667c0-11.776 9.557-21.333 21.333-21.333h42.667c11.776 0 21.333 9.557 21.333 21.333s-9.557 21.333-21.333 21.333zM21.333 362.667c11.776 0 21.333 9.557 21.333 21.333v42.667c0 11.776-9.557 21.333-21.333 21.333s-21.333-9.557-21.333-21.333v-42.667c0-11.776 9.557-21.333 21.333-21.333zM21.333 490.667c11.776 0 21.333 9.557 21.333 21.333v42.667c0 11.776-9.557 21.333-21.333 21.333s-21.333-9.557-21.333-21.333v-42.667c0-11.776 9.557-21.333 21.333-21.333zM21.333 618.667c11.776 0 21.333 9.557 21.333 21.333v42.667c0 11.776-9.557 21.333-21.333 21.333s-21.333-9.557-21.333-21.333v-42.667c0-11.776 9.557-21.333 21.333-21.333zM21.333 746.667c11.776 0 21.333 9.557 21.333 21.333v42.667c0 11.776-9.557 21.333-21.333 21.333s-21.333-9.557-21.333-21.333v-42.667c0-11.776 9.557-21.333 21.333-21.333zM981.333 704h-277.333c-23.552 0-42.667-19.115-42.667-42.667v-362.667h-362.667c-23.552 0-42.667-19.115-42.667-42.667v-277.333c0-23.552 19.115-42.667 42.667-42.667h682.667c23.552 0 42.667 19.115 42.667 42.667v682.667c0 23.552-19.115 42.667-42.667 42.667zM938.667 21.333h-597.333v192h362.667c23.552 0 42.667 19.115 42.667 42.667v362.667h192v-597.333z" />
<glyph unicode="&#xe613;" glyph-name="lock-close" d="M768 564.224v139.776c0 141.184-114.816 256-256 256s-256-114.816-256-256v-139.776c-74.325-26.496-128-96.896-128-180.224v-256c0-105.856 86.144-192 192-192h384c105.856 0 192 86.144 192 192v256c0 83.328-53.675 153.728-128 180.224zM512 192c-47.104 0-85.333 38.187-85.333 85.333 0 47.189 38.229 85.333 85.333 85.333 47.147 0 85.333-38.144 85.333-85.333 0-47.147-38.187-85.333-85.333-85.333zM725.333 576h-426.667v128c0 117.632 95.701 213.333 213.333 213.333s213.333-95.701 213.333-213.333v-128z" />
<glyph unicode="&#xe614;" glyph-name="calculator" d="M0 810.667v-320h469.333v469.333h-320c-82.347 0-149.333-66.987-149.333-149.333zM213.333 789.333c0 11.776 9.557 21.333 21.333 21.333s21.333-9.557 21.333-21.333v-85.333h85.333c11.776 0 21.333-9.557 21.333-21.333s-9.557-21.333-21.333-21.333h-85.333v-85.333c0-11.733-9.557-21.333-21.333-21.333s-21.333 9.6-21.333 21.333v85.333h-85.333c-11.776 0-21.333 9.557-21.333 21.333s9.557 21.333 21.333 21.333h85.333v85.333zM512-64h362.667c82.347 0 149.333 66.987 149.333 149.333v362.667h-512v-512zM640 277.333h213.333c11.776 0 21.333-9.557 21.333-21.333 0-11.733-9.557-21.333-21.333-21.333h-213.333c-11.776 0-21.333 9.6-21.333 21.333 0 11.776 9.557 21.333 21.333 21.333zM640 192h213.333c11.776 0 21.333-9.557 21.333-21.333 0-11.733-9.557-21.333-21.333-21.333h-213.333c-11.776 0-21.333 9.6-21.333 21.333 0 11.776 9.557 21.333 21.333 21.333zM874.667 960h-362.667v-469.333h512v320c0 82.347-66.987 149.333-149.333 149.333zM853.333 661.333h-213.333c-11.776 0-21.333 9.557-21.333 21.333s9.557 21.333 21.333 21.333h213.333c11.776 0 21.333-9.557 21.333-21.333s-9.557-21.333-21.333-21.333zM0 85.333c0-82.347 66.987-149.333 149.333-149.333h320v512h-469.333v-362.667zM155.563 283.563c-8.32 8.32-8.32 21.845 0 30.208 8.32 8.32 21.845 8.32 30.165 0l70.272-70.229 70.229 70.229c8.32 8.32 21.845 8.32 30.165 0s8.32-21.888 0-30.208l-70.229-70.229 70.229-70.229c8.32-8.32 8.32-21.888 0-30.208-4.139-4.139-9.6-6.229-15.061-6.229s-10.923 2.091-15.104 6.229l-70.229 70.272-70.229-70.272c-4.181-4.139-9.643-6.229-15.104-6.229s-10.923 2.091-15.104 6.229c-8.32 8.32-8.32 21.845 0 30.208l70.272 70.229-70.272 70.229z" />
<glyph unicode="&#xe615;" glyph-name="font-size" d="M553.771 0c0 28.501 14.123 53.589 35.584 69.077l-32.043 93.824-40.875-120.235h-11.52c-23.595 0-42.667-19.072-42.667-42.667s19.072-42.667 42.667-42.667h60.715c-7.339 12.587-11.861 27.051-11.861 42.667zM981.333 42.667h-12.117l-186.283 545.621c-5.888 17.237-22.144 28.885-40.363 28.885-18.304 0-34.517-11.605-40.363-28.928l-54.784-160.896 45.141-132.181 50.091 147.115 63.616-186.283h-100.352l29.184-85.333h100.309l44.843-131.328c-15.36-6.4-26.155-21.632-26.155-39.339 0-23.595 19.072-42.667 42.667-42.667h84.565c23.595 0 42.667 19.072 42.667 42.667s-19.072 42.667-42.667 42.667zM768 42.667h-34.389l-288.768 845.781c-5.888 17.323-22.144 28.885-40.405 28.885s-34.475-11.605-40.363-28.928l-287.957-845.739h-33.451c-23.595 0-42.667-19.072-42.667-42.667s19.072-42.667 42.667-42.667h128.896c23.595 0 42.667 19.072 42.667 42.667s-19.072 42.667-42.667 42.667h-5.333l72.619 213.333h331.733l72.832-213.333h-4.352c-23.595 0-42.667-19.072-42.667-42.667s19.072-42.667 42.667-42.667h128.939c23.595 0 42.667 19.072 42.667 42.667s-19.072 42.667-42.667 42.667zM267.904 341.333l136.576 401.109 137.003-401.109h-273.579z" />
<glyph unicode="&#xe616;" glyph-name="font-color" d="M170.667 234.667h128c23.552 0 42.667 19.072 42.667 42.667 0 23.211-18.645 42.027-41.771 42.539l55.509 128.128h313.771l55.509-128.128c-23.083-0.512-41.685-19.328-41.685-42.539 0-23.595 19.072-42.667 42.667-42.667h128c23.552 0 42.667 19.072 42.667 42.667 0 23.552-19.115 42.667-42.667 42.667h-36.011l-266.197 614.272c-6.741 15.616-22.144 25.728-39.125 25.728s-32.427-10.112-39.168-25.728l-266.155-614.272h-36.011c-23.595 0-42.667-19.115-42.667-42.667 0-23.595 19.072-42.667 42.667-42.667zM512 809.984l119.893-276.651h-239.787l119.893 276.651zM1002.667 192h-981.333c-11.776 0-21.333-9.557-21.333-21.333v-213.333c0-11.776 9.557-21.333 21.333-21.333h981.333c11.733 0 21.333 9.557 21.333 21.333v213.333c0 11.776-9.6 21.333-21.333 21.333zM853.333 12.501l-94.165 94.165h188.331l-94.165-94.165z" />
<glyph unicode="&#xe617;" glyph-name="bring-to-front" d="M768 938.667c0 11.776-9.557 21.333-21.333 21.333h-725.333c-11.776 0-21.333-9.557-21.333-21.333v-725.333c0-11.819 9.557-21.333 21.333-21.333h192v533.333c0 11.776 9.557 21.333 21.333 21.333h533.333v192zM1002.667 704h-746.667v-746.667c0-11.819 9.557-21.333 21.333-21.333h725.333c11.776 0 21.333 9.515 21.333 21.333v725.333c0 11.776-9.557 21.333-21.333 21.333z" />
<glyph unicode="&#xe618;" glyph-name="paint-palette" d="M874.027 777.771c-96.725 96.64-225.28 149.931-362.027 149.931s-265.344-53.291-362.027-149.888c-199.637-199.723-199.637-524.501 0-724.181 20.139-20.096 46.933-31.189 75.435-31.189 28.459 0 55.253 11.093 75.435 31.189 41.557 41.643 41.557 109.312 0 150.912-8.32 8.32-8.32 21.845 0 30.208 8.021 8.021 22.101 8.021 30.165 0l180.992-181.12c48.341-48.341 112.64-74.965 181.035-74.965s132.651 26.624 180.992 74.965c199.637 199.637 199.637 524.459 0 724.139zM481.792 626.901c-24.96-25.045-65.493-25.045-90.496 0-25.003 25.003-25.003 65.536 0 90.496 25.003 25.003 65.493 25.003 90.496 0 25.003-24.96 25.003-65.493 0-90.496zM647.765 672.085c24.96 25.003 65.536 25.003 90.496 0 24.96-24.917 24.96-65.493 0-90.496-24.96-24.96-65.536-24.96-90.496 0-25.003 25.003-25.003 65.579 0 90.496zM753.365 144.213c-33.323-33.365-87.381-33.365-120.661 0-33.323 33.28-33.323 87.253 0 120.661 33.28 33.28 87.339 33.28 120.661 0 33.28-33.408 33.28-87.381 0-120.661zM840.832 385.536c-16.683-16.597-43.691-16.597-60.331 0-16.683 16.64-16.683 43.691 0 60.373 16.64 16.64 43.648 16.64 60.331 0 16.683-16.683 16.683-43.776 0-60.373z" />
<glyph unicode="&#xe619;" glyph-name="mailbox" d="M1022.891 474.795l-1.792 5.291-149.333 256c-3.84 6.528-10.837 10.581-18.432 10.581h-682.667c-7.595 0-14.592-4.053-18.432-10.581l-149.333-256-1.792-5.291-1.109-5.461v-298.667c0-11.776 9.557-21.333 21.333-21.333h981.333c11.776 0 21.333 9.557 21.333 21.333v298.667l-1.109 5.461zM704 490.667c-5.675 0-11.093-2.261-15.104-6.229-4.011-4.011-6.229-9.472-6.229-15.104v-42.667c0-35.285-28.715-64-64-64h-192c-35.285 0-64 28.715-64 64v42.667c0 11.776-9.557 21.333-21.333 21.333h-282.837l124.459 213.333h658.176l124.459-213.333h-261.589z" />
<glyph unicode="&#xe61a;" glyph-name="help-circle" d="M512 960c-282.325 0-512-229.675-512-512s229.675-512 512-512c282.283 0 512 229.675 512 512s-229.717 512-512 512zM512 149.333c-23.595 0-42.667 19.072-42.667 42.667 0 23.552 19.072 42.667 42.667 42.667 23.509 0 42.667-19.115 42.667-42.667 0-23.595-19.157-42.667-42.667-42.667zM533.333 406.827v-108.16c0-11.776-9.6-21.333-21.333-21.333-11.776 0-21.333 9.557-21.333 21.333v128c0 11.776 9.557 21.333 21.333 21.333 58.795 0 106.667 47.829 106.667 106.667s-47.872 106.667-106.667 106.667c-58.837 0-106.667-47.829-106.667-106.667 0-11.776-9.6-21.333-21.333-21.333-11.776 0-21.333 9.557-21.333 21.333 0 82.347 66.944 149.333 149.333 149.333 82.347 0 149.333-66.987 149.333-149.333 0-75.093-55.765-137.429-128-147.84z" />
<glyph unicode="&#xe61b;" glyph-name="inbox" d="M1023.744 257.28l-0.853 4.181-1.365 4.011-0.427 1.237-149.333 256c-3.84 6.571-10.837 10.624-18.432 10.624h-128c-11.776 0-21.333-9.557-21.333-21.333s9.557-21.333 21.333-21.333h115.755l124.459-213.333h-261.547c-11.776 0-21.333-9.557-21.333-21.333v-42.667c0-35.285-28.715-64-64-64h-192c-35.285 0-64 28.715-64 64v42.667c0 11.776-9.557 21.333-21.333 21.333h-282.837l124.459 213.333h94.379c11.776 0 21.333 9.557 21.333 21.333s-9.557 21.333-21.333 21.333h-106.667c-7.595 0-14.592-4.053-18.432-10.581l-149.333-256-0.427-1.237-1.365-4.011-0.853-4.181-0.256-1.323v-298.667c0-11.776 9.557-21.333 21.333-21.333h981.333c11.776 0 21.333 9.557 21.333 21.333v298.667l-0.256 1.28zM475.563 454.229c3.84-3.797 9.301-6.229 15.104-6.229s11.264 2.432 15.104 6.229l170.667 170.667c8.32 8.32 8.32 21.845 0 30.165s-21.845 8.32-30.165 0l-134.272-134.229v417.835c0 11.776-9.557 21.333-21.333 21.333s-21.333-9.557-21.333-21.333v-417.835l-134.229 134.272c-8.32 8.32-21.845 8.32-30.165 0s-8.32-21.845 0-30.165l170.624-170.709z" />
<glyph unicode="&#xe61c;" glyph-name="hierarchy" d="M916.352 190.208c-10.155 143.829-130.048 257.792-276.352 257.792h-106.667v257.92c60.416 10.197 106.667 62.805 106.667 126.080 0 70.571-57.429 128-128 128s-128-57.429-128-128c0-63.275 46.208-115.883 106.667-126.080v-257.92h-106.667c-146.347 0-266.24-113.963-276.395-257.792-60.885-9.771-107.605-62.592-107.605-126.208 0-70.571 57.429-128 128-128s128 57.429 128 128c0 62.976-45.739 115.285-105.728 125.909 9.856 120.363 110.805 215.424 233.728 215.424h106.667v-215.296c-60.459-10.155-106.667-62.763-106.667-126.037 0-70.571 57.429-128 128-128s128 57.429 128 128c0 63.275-46.251 115.883-106.667 126.037v215.296h106.667c122.88 0 223.829-95.061 233.685-215.424-59.989-10.624-105.685-62.933-105.685-125.909 0-70.571 57.429-128 128-128s128 57.429 128 128c0 63.616-46.763 116.437-107.648 126.208z" />
<glyph unicode="&#xe61d;" glyph-name="grid-subtract" d="M298.667 362.667h213.333v-256h-213.333zM0 661.333h256v-256h-256zM298.667 960h213.333v-256h-213.333zM554.667 704h256v149.333c0 58.795-47.872 106.667-106.667 106.667h-149.333v-256zM554.667 661.333v-256h87.552c42.709 26.88 93.056 42.667 147.115 42.667l21.333-1.109v214.443h-256zM256 362.667h-256v-149.333c0-58.795 47.872-106.667 106.667-106.667h149.333v256zM298.667 661.333h213.333v-256h-213.333zM256 704v256h-149.333c-58.795 0-106.667-47.872-106.667-106.667v-149.333h256zM789.333 405.333c-129.408 0-234.667-105.259-234.667-234.667s105.259-234.667 234.667-234.667 234.667 105.259 234.667 234.667-105.259 234.667-234.667 234.667zM896 149.333h-213.333c-11.776 0-21.333 9.557-21.333 21.333s9.557 21.333 21.333 21.333h213.333c11.776 0 21.333-9.557 21.333-21.333s-9.557-21.333-21.333-21.333z" />
<glyph unicode="&#xe61e;" glyph-name="grid-add" d="M512 362.667h-213.333v-256h213.333v64.384zM0 661.333h256v-256h-256zM554.667 661.333v-256h87.552c42.667 26.88 93.056 42.667 147.115 42.667l21.333-1.109v214.443h-256zM298.667 960h213.333v-256h-213.333zM554.667 704h256v149.333c0 58.795-47.872 106.667-106.667 106.667h-149.333v-256zM256 362.667h-256v-149.333c0-58.795 47.872-106.667 106.667-106.667h149.333v256zM256 704v256h-149.333c-58.795 0-106.667-47.872-106.667-106.667v-149.333h256zM298.667 661.333h213.333v-256h-213.333zM789.333 405.333c-129.408 0-234.667-105.259-234.667-234.667s105.259-234.667 234.667-234.667 234.667 105.259 234.667 234.667-105.301 234.667-234.667 234.667zM896 149.333h-85.333v-85.333c0-11.776-9.557-21.333-21.333-21.333s-21.333 9.557-21.333 21.333v85.333h-85.333c-11.776 0-21.333 9.557-21.333 21.333s9.515 21.333 21.333 21.333h85.333v85.333c0 11.776 9.557 21.333 21.333 21.333s21.333-9.557 21.333-21.333v-85.333h85.333c11.776 0 21.333-9.557 21.333-21.333s-9.557-21.333-21.333-21.333z" />
<glyph unicode="&#xe61f;" glyph-name="file-new" d="M149.333 906.667c0-17.673-14.327-32-32-32s-32 14.327-32 32c0 17.673 14.327 32 32 32s32-14.327 32-32zM234.667 906.667c0-17.673-14.327-32-32-32s-32 14.327-32 32c0 17.673 14.327 32 32 32s32-14.327 32-32zM320 906.667c0-17.673-14.327-32-32-32s-32 14.327-32 32c0 17.673 14.327 32 32 32s32-14.327 32-32zM405.333 906.667c0-17.673-14.327-32-32-32s-32 14.327-32 32c0 17.673 14.327 32 32 32s32-14.327 32-32zM490.667 906.667c0-17.673-14.327-32-32-32s-32 14.327-32 32c0 17.673 14.327 32 32 32s32-14.327 32-32zM576 906.667c0-17.673-14.327-32-32-32s-32 14.327-32 32c0 17.673 14.327 32 32 32s32-14.327 32-32zM661.333 906.667c0-17.673-14.327-32-32-32s-32 14.327-32 32c0 17.673 14.327 32 32 32s32-14.327 32-32zM661.333 821.333c0-17.673-14.327-32-32-32s-32 14.327-32 32c0 17.673 14.327 32 32 32s32-14.327 32-32zM661.333 736c0-17.673-14.327-32-32-32s-32 14.327-32 32c0 17.673 14.327 32 32 32s32-14.327 32-32zM768 821.333c0-17.673-14.327-32-32-32s-32 14.327-32 32c0 17.673 14.327 32 32 32s32-14.327 32-32zM661.333 650.667c0-17.673-14.327-32-32-32s-32 14.327-32 32c0 17.673 14.327 32 32 32s32-14.327 32-32zM832 757.333c0-17.673-14.327-32-32-32s-32 14.327-32 32c0 17.673 14.327 32 32 32s32-14.327 32-32zM234.667-32c0-17.673-14.327-32-32-32s-32 14.327-32 32c0 17.673 14.327 32 32 32s32-14.327 32-32zM320-32c0-17.673-14.327-32-32-32s-32 14.327-32 32c0 17.673 14.327 32 32 32s32-14.327 32-32zM405.333-32c0-17.673-14.327-32-32-32s-32 14.327-32 32c0 17.673 14.327 32 32 32s32-14.327 32-32zM490.667-32c0-17.673-14.327-32-32-32s-32 14.327-32 32c0 17.673 14.327 32 32 32s32-14.327 32-32zM576-32c0-17.673-14.327-32-32-32s-32 14.327-32 32c0 17.673 14.327 32 32 32s32-14.327 32-32zM661.333-32c0-17.673-14.327-32-32-32s-32 14.327-32 32c0 17.673 14.327 32 32 32s32-14.327 32-32zM746.667-32c0-17.673-14.327-32-32-32s-32 14.327-32 32c0 17.673 14.327 32 32 32s32-14.327 32-32zM832-32c0-17.673-14.327-32-32-32s-32 14.327-32 32c0 17.673 14.327 32 32 32s32-14.327 32-32zM149.333 821.333c0-17.673-14.327-32-32-32s-32 14.327-32 32c0 17.673 14.327 32 32 32s32-14.327 32-32zM149.333 736c0-17.673-14.327-32-32-32s-32 14.327-32 32c0 17.673 14.327 32 32 32s32-14.327 32-32zM149.333 650.667c0-17.673-14.327-32-32-32s-32 14.327-32 32c0 17.673 14.327 32 32 32s32-14.327 32-32zM917.333 650.667c0-17.673-14.327-32-32-32s-32 14.327-32 32c0 17.673 14.327 32 32 32s32-14.327 32-32zM832 650.667c0-17.673-14.327-32-32-32s-32 14.327-32 32c0 17.673 14.327 32 32 32s32-14.327 32-32zM746.667 650.667c0-17.673-14.327-32-32-32s-32 14.327-32 32c0 17.673 14.327 32 32 32s32-14.327 32-32zM149.333 565.333c0-17.673-14.327-32-32-32s-32 14.327-32 32c0 17.673 14.327 32 32 32s32-14.327 32-32zM917.333 565.333c0-17.673-14.327-32-32-32s-32 14.327-32 32c0 17.673 14.327 32 32 32s32-14.327 32-32zM149.333 480c0-17.673-14.327-32-32-32s-32 14.327-32 32c0 17.673 14.327 32 32 32s32-14.327 32-32zM917.333 480c0-17.673-14.327-32-32-32s-32 14.327-32 32c0 17.673 14.327 32 32 32s32-14.327 32-32zM149.333 394.667c0-17.673-14.327-32-32-32s-32 14.327-32 32c0 17.673 14.327 32 32 32s32-14.327 32-32zM917.333 394.667c0-17.673-14.327-32-32-32s-32 14.327-32 32c0 17.673 14.327 32 32 32s32-14.327 32-32zM149.333 309.333c0-17.673-14.327-32-32-32s-32 14.327-32 32c0 17.673 14.327 32 32 32s32-14.327 32-32zM917.333 309.333c0-17.673-14.327-32-32-32s-32 14.327-32 32c0 17.673 14.327 32 32 32s32-14.327 32-32zM149.333 224c0-17.673-14.327-32-32-32s-32 14.327-32 32c0 17.673 14.327 32 32 32s32-14.327 32-32zM917.333 224c0-17.673-14.327-32-32-32s-32 14.327-32 32c0 17.673 14.327 32 32 32s32-14.327 32-32zM149.333 138.667c0-17.673-14.327-32-32-32s-32 14.327-32 32c0 17.673 14.327 32 32 32s32-14.327 32-32zM917.333 138.667c0-17.673-14.327-32-32-32s-32 14.327-32 32c0 17.673 14.327 32 32 32s32-14.327 32-32zM149.333 53.333c0-17.673-14.327-32-32-32s-32 14.327-32 32c0 17.673 14.327 32 32 32s32-14.327 32-32zM917.333 53.333c0-17.673-14.327-32-32-32s-32 14.327-32 32c0 17.673 14.327 32 32 32s32-14.327 32-32zM149.333-32c0-17.673-14.327-32-32-32s-32 14.327-32 32c0 17.673 14.327 32 32 32s32-14.327 32-32zM917.333-32c0-17.673-14.327-32-32-32s-32 14.327-32 32c0 17.673 14.327 32 32 32s32-14.327 32-32z" />
<glyph unicode="&#xe620;" glyph-name="expand-vertical-6" d="M981.333 363.008h-938.667c-23.595 0-42.667-19.072-42.667-42.667s19.072-42.667 42.667-42.667h405.333v-196.011l-55.168 55.168c-16.683 16.683-43.691 16.683-60.331 0-16.683-16.683-16.683-43.648 0-60.331l127.957-127.957c15.744-16.085 43.136-17.237 60.373 0l128 127.957c16.683 16.683 16.683 43.648 0 60.331s-43.691 16.683-60.331 0l-55.168-55.168v196.011h448c23.552 0 42.667 19.072 42.667 42.667s-19.115 42.667-42.667 42.667zM42.667 448.341h938.667c23.552 0 42.667 19.072 42.667 42.667s-19.115 42.667-42.667 42.667h-448v280.661l55.168-55.168c8.277-8.32 19.243-12.501 30.165-12.501s21.845 4.181 30.165 12.501c16.683 16.683 16.683 43.648 0 60.331l-128 128c-18.048 17.707-44.843 15.488-60.373 0l-127.957-128c-16.683-16.683-16.683-43.648 0-60.331 16.64-16.683 43.648-16.683 60.331 0l55.168 55.168v-280.661h-405.333c-23.595 0-42.667-19.072-42.667-42.667s19.072-42.667 42.667-42.667z" />
<glyph unicode="&#xe621;" glyph-name="expand-vertical-5" d="M567.168 631.168c8.277-8.32 19.243-12.501 30.165-12.501s21.845 4.181 30.165 12.501c16.683 16.683 16.683 43.648 0 60.331l-128 128c-18.048 17.707-44.843 15.488-60.373 0l-127.957-128c-16.683-16.683-16.683-43.648 0-60.331 16.64-16.683 43.648-16.683 60.331 0l55.168 55.168v-476.672l-55.168 55.168c-16.683 16.683-43.691 16.683-60.331 0-16.683-16.683-16.683-43.648 0-60.331l127.957-127.957c15.744-16.085 43.136-17.237 60.373 0l128 127.957c16.683 16.683 16.683 43.648 0 60.331s-43.691 16.683-60.331 0l-55.168-55.168v476.672l55.168-55.168zM768 21.333h-554.667c-23.595 0-42.667-19.072-42.667-42.667 0-23.552 19.072-42.667 42.667-42.667h554.667c23.552 0 42.667 19.115 42.667 42.667 0 23.595-19.115 42.667-42.667 42.667zM213.333 874.667h554.667c23.552 0 42.667 19.115 42.667 42.667 0 23.595-19.115 42.667-42.667 42.667h-554.667c-23.595 0-42.667-19.072-42.667-42.667 0-23.552 19.072-42.667 42.667-42.667z" />
<glyph unicode="&#xe622;" glyph-name="expand-vertical-3" d="M704 490.667h-405.333c-23.595 0-42.667-19.115-42.667-42.667 0-23.595 19.072-42.667 42.667-42.667h405.333c23.552 0 42.667 19.072 42.667 42.667 0 23.552-19.115 42.667-42.667 42.667zM588.501 136.832l-55.168-55.168v217.003c0 23.552-19.115 42.667-42.667 42.667-23.595 0-42.667-19.115-42.667-42.667v-217.003l-55.168 55.168c-16.683 16.683-43.691 16.683-60.331 0-16.683-16.683-16.683-43.648 0-60.331l128.043-128.043c16.341-16.341 43.605-16.597 60.203 0l0.085 0.043 128 128c16.683 16.683 16.683 43.648 0 60.331s-43.691 16.683-60.331 0zM392.832 759.168l55.168 55.168v-217.003c0-23.552 19.072-42.667 42.667-42.667 23.552 0 42.667 19.115 42.667 42.667v217.003l55.168-55.168c8.32-8.32 19.243-12.501 30.165-12.501s21.845 4.181 30.165 12.501c16.683 16.683 16.683 43.648 0 60.331l-128.085 128.043c-16.597 16.896-44.373 16.128-60.203 0h-0.043l-128-128.043c-16.683-16.683-16.683-43.648 0-60.331 16.64-16.683 43.648-16.683 60.331 0z" />
<glyph unicode="&#xe623;" glyph-name="expand-vertical-2" d="M673.92 243.157l-139.477-138.923 0.341 689.365 140.075-140.629c8.32-8.363 19.243-12.587 30.208-12.587 10.88 0 21.803 4.181 30.123 12.459 16.683 16.64 16.768 43.605 0.085 60.331l-212.907 213.76c-15.744 15.744-41.131 17.28-59.008 1.195 0 0 7.467 7.68-215.083-214.059-16.683-16.64-16.768-43.605-0.085-60.331 16.64-16.725 43.648-16.768 60.331-0.128l140.928 140.416-0.341-692.352-141.525 142.123c-16.64 16.683-43.605 16.725-60.331 0.128-16.725-16.64-16.768-43.648-0.128-60.331l212.907-213.76c8.021-8.021 18.816-12.544 30.165-12.587h0.043l0.768 0.085 0.725-0.085h0.043c15.061 0 28.203 7.851 35.797 19.584l206.592 205.781c16.725 16.64 16.768 43.648 0.128 60.331-16.683 16.811-43.691 16.853-60.373 0.213z" />
<glyph unicode="&#xe624;" glyph-name="expand-vertical" d="M587.179 157.483l-54.357-54.229 0.725 689.536 54.955-55.168c8.32-8.363 19.285-12.587 30.251-12.587 10.88 0 21.76 4.181 30.080 12.459 16.725 16.64 16.768 43.605 0.128 60.331l-127.744 128.256c-15.36 15.36-37.888 18.005-60.373 0.128l-128.256-127.701c-16.725-16.64-16.768-43.648-0.128-60.331 16.64-16.768 43.648-16.811 60.331-0.128l55.381 55.125-0.725-691.413-55.893 56.107c-16.683 16.683-43.648 16.725-60.373 0.128-16.725-16.64-16.725-43.648-0.128-60.331l127.744-128.256c8.32-8.363 19.285-12.587 30.251-12.587l0.469 0.043 0.469-0.043c14.251 0 26.795 7.040 34.56 17.792l122.923 122.411c16.725 16.64 16.725 43.605 0.128 60.331-16.683 16.683-43.733 16.725-60.416 0.128z" />
<glyph unicode="&#xe625;" glyph-name="expand-horizontal" d="M883.157 454.912l-0.171 0.213-0.043 0.043-127.701 128.213c-16.64 16.725-43.648 16.768-60.331 0.128s-16.768-43.605-0.128-60.331l55.168-55.381-476.288 0.512 55.893 55.68c16.725 16.64 16.768 43.605 0.128 60.331-16.64 16.683-43.605 16.725-60.331 0.128l-128.256-127.744c-8.021-8.021-12.544-18.816-12.587-30.165l0.043-0.384-0.043-0.341c0-13.611 6.485-25.643 16.427-33.408l123.776-124.288c8.32-8.363 19.285-12.587 30.208-12.587s21.845 4.181 30.165 12.459c16.683 16.64 16.725 43.605 0.085 60.331l-54.443 54.656 474.88-0.512-55.168-54.955c-16.683-16.64-16.768-43.605-0.085-60.331 8.32-8.363 19.243-12.544 30.208-12.544 10.88 0 21.803 4.139 30.123 12.416l128.256 127.787c16.64 16.341 16.555 43.733 0.213 60.075zM43.819 746.667h-0.085c-23.595 0-42.667-19.029-42.667-42.581l-1.067-554.667c-0.085-23.552 18.987-42.709 42.581-42.752h0.043c23.552 0 42.624 19.029 42.709 42.581l1.067 554.667c0 23.595-19.029 42.709-42.581 42.752zM981.333 744.789c-23.595 0-42.667-19.115-42.667-42.667v-552.789c0-23.552 19.072-42.667 42.667-42.667 23.552 0 42.667 19.115 42.667 42.667v552.789c0 23.552-19.115 42.667-42.667 42.667z" />
<glyph unicode="&#xe626;" glyph-name="expand-horizontal-2" d="M991.147 456.192l-0.128 0.128h-0.043v0.043l-212.864 213.717c-16.64 16.725-43.605 16.768-60.373 0.128-16.683-16.64-16.725-43.605-0.085-60.331l140.331-140.885-691.755 0.768 141.611 141.099c16.725 16.64 16.768 43.605 0.128 60.331-16.64 16.683-43.605 16.725-60.331 0.128l-213.76-212.907c-8.064-8.021-12.544-18.859-12.544-30.208v-0.853c-0.043-14.464 7.083-27.093 17.877-34.816l207.445-208.256c8.32-8.363 19.285-12.587 30.251-12.587 10.88 0 21.76 4.181 30.080 12.459 16.725 16.64 16.768 43.605 0.128 60.331l-139.392 139.861 689.877-0.683-140.629-140.117c-16.725-16.64-16.768-43.605-0.128-60.331 8.32-8.363 19.285-12.544 30.251-12.544 10.88 0 21.76 4.139 30.080 12.416l213.803 212.949c16 15.957 17.109 42.88 0.171 60.16z" />
<glyph unicode="&#xe627;" glyph-name="expand-horizontal-1" d="M990.891 497.536l-0.171 0.256-0.043 0.043-127.744 128.213c-16.597 16.683-43.605 16.725-60.331 0.128-16.683-16.64-16.725-43.648-0.085-60.331l55.168-55.381-691.456 0.683 56.107 55.936c16.725 16.64 16.768 43.648 0.128 60.331-16.64 16.725-43.648 16.768-60.331 0.128l-128.256-127.744c-8.064-7.979-12.544-18.859-12.544-30.123v-1.024c-0.043-14.336 7.083-26.923 17.877-34.688l122.283-122.752c8.32-8.363 19.285-12.544 30.251-12.544 10.88 0 21.76 4.139 30.080 12.416 16.725 16.64 16.768 43.648 0.128 60.331l-54.187 54.4 689.536-0.725-55.168-54.912c-16.725-16.64-16.768-43.648-0.128-60.331 8.32-8.363 19.285-12.587 30.251-12.587 10.88 0 21.76 4.181 30.080 12.459l128.299 127.787c17.024 17.024 16.213 44.075 0.256 60.032z" />
<glyph unicode="&#xe628;" glyph-name="file-new-32" d="M149.333 906.667c0-17.673-14.327-32-32-32s-32 14.327-32 32c0 17.673 14.327 32 32 32s32-14.327 32-32zM234.667 906.667c0-17.673-14.327-32-32-32s-32 14.327-32 32c0 17.673 14.327 32 32 32s32-14.327 32-32zM320 906.667c0-17.673-14.327-32-32-32s-32 14.327-32 32c0 17.673 14.327 32 32 32s32-14.327 32-32zM405.333 906.667c0-17.673-14.327-32-32-32s-32 14.327-32 32c0 17.673 14.327 32 32 32s32-14.327 32-32zM490.667 906.667c0-17.673-14.327-32-32-32s-32 14.327-32 32c0 17.673 14.327 32 32 32s32-14.327 32-32zM576 906.667c0-17.673-14.327-32-32-32s-32 14.327-32 32c0 17.673 14.327 32 32 32s32-14.327 32-32zM661.333 906.667c0-17.673-14.327-32-32-32s-32 14.327-32 32c0 17.673 14.327 32 32 32s32-14.327 32-32zM661.333 821.333c0-17.673-14.327-32-32-32s-32 14.327-32 32c0 17.673 14.327 32 32 32s32-14.327 32-32zM661.333 736c0-17.673-14.327-32-32-32s-32 14.327-32 32c0 17.673 14.327 32 32 32s32-14.327 32-32zM768 821.333c0-17.673-14.327-32-32-32s-32 14.327-32 32c0 17.673 14.327 32 32 32s32-14.327 32-32zM661.333 650.667c0-17.673-14.327-32-32-32s-32 14.327-32 32c0 17.673 14.327 32 32 32s32-14.327 32-32zM832 757.333c0-17.673-14.327-32-32-32s-32 14.327-32 32c0 17.673 14.327 32 32 32s32-14.327 32-32zM234.667-32c0-17.673-14.327-32-32-32s-32 14.327-32 32c0 17.673 14.327 32 32 32s32-14.327 32-32zM320-32c0-17.673-14.327-32-32-32s-32 14.327-32 32c0 17.673 14.327 32 32 32s32-14.327 32-32zM405.333-32c0-17.673-14.327-32-32-32s-32 14.327-32 32c0 17.673 14.327 32 32 32s32-14.327 32-32zM490.667-32c0-17.673-14.327-32-32-32s-32 14.327-32 32c0 17.673 14.327 32 32 32s32-14.327 32-32zM576-32c0-17.673-14.327-32-32-32s-32 14.327-32 32c0 17.673 14.327 32 32 32s32-14.327 32-32zM661.333-32c0-17.673-14.327-32-32-32s-32 14.327-32 32c0 17.673 14.327 32 32 32s32-14.327 32-32zM746.667-32c0-17.673-14.327-32-32-32s-32 14.327-32 32c0 17.673 14.327 32 32 32s32-14.327 32-32zM832-32c0-17.673-14.327-32-32-32s-32 14.327-32 32c0 17.673 14.327 32 32 32s32-14.327 32-32zM149.333 821.333c0-17.673-14.327-32-32-32s-32 14.327-32 32c0 17.673 14.327 32 32 32s32-14.327 32-32zM149.333 736c0-17.673-14.327-32-32-32s-32 14.327-32 32c0 17.673 14.327 32 32 32s32-14.327 32-32zM149.333 650.667c0-17.673-14.327-32-32-32s-32 14.327-32 32c0 17.673 14.327 32 32 32s32-14.327 32-32zM917.333 650.667c0-17.673-14.327-32-32-32s-32 14.327-32 32c0 17.673 14.327 32 32 32s32-14.327 32-32zM832 650.667c0-17.673-14.327-32-32-32s-32 14.327-32 32c0 17.673 14.327 32 32 32s32-14.327 32-32zM746.667 650.667c0-17.673-14.327-32-32-32s-32 14.327-32 32c0 17.673 14.327 32 32 32s32-14.327 32-32zM149.333 565.333c0-17.673-14.327-32-32-32s-32 14.327-32 32c0 17.673 14.327 32 32 32s32-14.327 32-32zM917.333 565.333c0-17.673-14.327-32-32-32s-32 14.327-32 32c0 17.673 14.327 32 32 32s32-14.327 32-32zM149.333 480c0-17.673-14.327-32-32-32s-32 14.327-32 32c0 17.673 14.327 32 32 32s32-14.327 32-32zM917.333 480c0-17.673-14.327-32-32-32s-32 14.327-32 32c0 17.673 14.327 32 32 32s32-14.327 32-32zM149.333 394.667c0-17.673-14.327-32-32-32s-32 14.327-32 32c0 17.673 14.327 32 32 32s32-14.327 32-32zM917.333 394.667c0-17.673-14.327-32-32-32s-32 14.327-32 32c0 17.673 14.327 32 32 32s32-14.327 32-32zM149.333 309.333c0-17.673-14.327-32-32-32s-32 14.327-32 32c0 17.673 14.327 32 32 32s32-14.327 32-32zM917.333 309.333c0-17.673-14.327-32-32-32s-32 14.327-32 32c0 17.673 14.327 32 32 32s32-14.327 32-32zM149.333 224c0-17.673-14.327-32-32-32s-32 14.327-32 32c0 17.673 14.327 32 32 32s32-14.327 32-32zM917.333 224c0-17.673-14.327-32-32-32s-32 14.327-32 32c0 17.673 14.327 32 32 32s32-14.327 32-32zM149.333 138.667c0-17.673-14.327-32-32-32s-32 14.327-32 32c0 17.673 14.327 32 32 32s32-14.327 32-32zM917.333 138.667c0-17.673-14.327-32-32-32s-32 14.327-32 32c0 17.673 14.327 32 32 32s32-14.327 32-32zM149.333 53.333c0-17.673-14.327-32-32-32s-32 14.327-32 32c0 17.673 14.327 32 32 32s32-14.327 32-32zM917.333 53.333c0-17.673-14.327-32-32-32s-32 14.327-32 32c0 17.673 14.327 32 32 32s32-14.327 32-32zM149.333-32c0-17.673-14.327-32-32-32s-32 14.327-32 32c0 17.673 14.327 32 32 32s32-14.327 32-32zM917.333-32c0-17.673-14.327-32-32-32s-32 14.327-32 32c0 17.673 14.327 32 32 32s32-14.327 32-32z" />
<glyph unicode="&#xe629;" glyph-name="expand" d="M981.504 660.992c23.552 0 42.667 19.115 42.667 42.667v213.12c0 22.784-18.347 42.24-42.112 42.624l-0.555 0.043-213.333 0.213c-23.595 0-42.667-19.072-42.667-42.624-0.043-23.552 19.029-42.667 42.581-42.709l110.507-0.085-366.251-366.208-366.080 366.080 110.080-0.213c23.552 0 42.667 19.029 42.667 42.581 0.085 23.595-18.987 42.709-42.581 42.752l-213.376 0.427c-23.339 0-42.197-18.773-42.581-41.643l-0.128-0.981-0.171-213.333c-0.043-23.552 19.029-42.667 42.581-42.709h0.043c23.552 0 42.667 19.072 42.709 42.624l0.085 110.464 366.379-366.336-366.464-366.421v110.336c0 23.595-19.115 42.667-42.667 42.667-23.595 0-42.667-19.072-42.667-42.667v-213.291c0-23.936 19.541-42.709 42.667-42.709h192c23.552 0 42.667 19.115 42.667 42.667 0 23.595-19.115 42.667-42.667 42.667h-89.003l366.464 366.421 366.379-366.421h-110.507c-23.595 0-42.667-19.072-42.667-42.667 0-23.552 19.072-42.667 42.667-42.667h213.504c10.923 0 21.888 4.181 30.165 12.501 8.917 8.917 12.928 20.693 12.331 32.341v213.077c0 23.552-19.115 42.667-42.667 42.667-23.595 0-42.667-19.115-42.667-42.667v-112.043l-366.165 366.165 366.165 366.123v-110.165c0-23.552 19.072-42.667 42.667-42.667z" />
<glyph unicode="&#xe62a;" glyph-name="hand-tablet" d="M375.893 237.056c-6.869 12.629-10.112 26.368-11.477 40.277h-172.416c-11.776 0-21.333 9.557-21.333 21.333v554.667c0 11.776 9.557 21.333 21.333 21.333h682.667c11.776 0 21.333-9.557 21.333-21.333v-446.763l103.125-36.992c9.003-2.731 17.28-7.125 24.875-12.544v496.299c0 58.837-47.872 106.667-106.667 106.667h-810.667c-58.795 0-106.667-47.829-106.667-106.667v-554.667c0-58.837 47.872-106.667 106.667-106.667h294.059l-24.832 45.056zM938.667 597.333c11.776 0 21.333-9.557 21.333-21.333s-9.557-21.333-21.333-21.333c-11.733 0-21.333 9.557-21.333 21.333s9.6 21.333 21.333 21.333zM106.667 533.333c-23.509 0-42.667 19.115-42.667 42.667s19.157 42.667 42.667 42.667 42.667-19.115 42.667-42.667-19.157-42.667-42.667-42.667zM984.704 329.429l-216.704 77.739v212.779c0 38.101-20.949 62.72-53.333 62.72h-61.781c-32.725 0-55.552-25.771-55.552-62.72v-334.635l-35.243 42.112c-11.52 14.763-30.976 23.936-51.2 23.936l-42.24-0.811c-22.229 0-43.008-11.776-54.229-30.848s-11.691-42.837-1.195-62.080l159.36-288.981c11.008-20.139 31.957-32.64 54.741-32.64h272.469c25.387 0 48.043 15.189 58.837 42.155l64.853 285.056 0.512 4.736c0 29.995-15.787 54.229-39.296 61.483z" />
<glyph unicode="&#xe62b;" glyph-name="email" d="M968.875 747.691l-443.477-358.955c-3.883-3.157-8.661-4.736-13.397-4.736s-9.515 1.579-13.44 4.736l-443.435 358.955c-7.723-12.8-12.459-27.648-12.459-43.691v-469.333c0-47.061 38.272-85.333 85.333-85.333h768c47.061 0 85.333 38.272 85.333 85.333v469.333c0 16.043-4.736 30.891-12.459 43.691zM938.155 777.771c-12.501 7.125-26.752 11.563-42.155 11.563h-768c-15.403 0-29.653-4.437-42.155-11.563l426.155-345.003 426.155 345.003z" />
<glyph unicode="&#xe62c;" glyph-name="email-send" d="M13.184 510.379c-8.064-3.328-13.269-11.221-13.184-19.968 0.085-8.661 5.461-16.469 13.611-19.584l354.219-137.771 619.904 579.84-974.549-402.517zM384.427 290.133l-0.427 0.427v-290.56c0-11.691 9.429-21.333 21.333-21.333 7.424 0 14.549 3.925 18.432 10.581l140.245 240.469 257.707-141.739c6.059-3.371 13.269-3.456 19.115-0.725 6.144 2.773 10.581 8.277 11.989 14.891l169.728 784.896-638.123-596.907z" />
<glyph unicode="&#xe62d;" glyph-name="flowchart" d="M896 960v-256h-213.333v64c0 11.776-9.557 21.333-21.333 21.333h-554.667c-11.776 0-21.333-9.557-21.333-21.333v-170.667c0-11.776 9.557-21.333 21.333-21.333h554.667c11.776 0 21.333 9.557 21.333 21.333v64h213.333v-256h-213.333v64c0 11.776-9.557 21.333-21.333 21.333h-554.667c-11.776 0-21.333-9.557-21.333-21.333v-170.667c0-11.776 9.557-21.333 21.333-21.333h554.667c11.776 0 21.333 9.557 21.333 21.333v64h213.333v-256h-213.333v64c0 11.776-9.557 21.333-21.333 21.333h-554.667c-11.776 0-21.333-9.557-21.333-21.333v-170.667c0-11.776 9.557-21.333 21.333-21.333h554.667c11.776 0 21.333 9.557 21.333 21.333v64h234.667c11.776 0 21.333 9.557 21.333 21.333v874.667h-42.667z" />
<glyph unicode="&#xe62e;" glyph-name="check-box" d="M965.461 886.485c-18.347 14.848-45.227 11.947-59.989-6.4l-503.552-624.384-179.755 179.755c-16.64 16.683-43.691 16.683-60.331 0-16.683-16.725-16.683-43.691 0-60.331l213.333-213.333c8.021-8.021 18.901-12.501 30.165-12.501 12.459 0 24.875 5.547 33.195 15.872l533.333 661.333c14.805 18.347 11.947 45.227-6.4 59.989zM810.667 490.624c-23.552 0-42.667-19.072-42.667-42.667v-426.667h-682.667v682.667h512c23.552 0 42.667 19.115 42.667 42.667 0 23.595-19.115 42.667-42.667 42.667h-554.667c-23.552 0-42.667-19.072-42.667-42.667v-768c0-23.552 19.115-42.667 42.667-42.667h768c23.552 0 42.667 19.115 42.667 42.667v469.333c0 23.595-19.115 42.667-42.667 42.667z" />
<glyph unicode="&#xe62f;" glyph-name="check" d="M1005.909 952.149c-19.285 13.611-45.867 8.96-59.435-10.283l-632.149-897.195-241.493 241.451c-16.64 16.683-43.691 16.683-60.331 0-16.683-16.725-16.683-43.691 0-60.331l277.333-277.333c8.021-8.021 18.901-12.501 30.165-12.501 13.568 0 26.752 6.528 34.859 18.091l661.333 938.667c13.568 19.285 8.96 45.909-10.283 59.435z" />
<glyph unicode="&#xe630;" glyph-name="calendar" d="M533.333 277.333h192v-128h-192zM298.667 277.333h192v-128h-192zM533.333 448h192v-128h-192zM298.667 448h192v-128h-192zM0-42.667c0-11.776 9.557-21.333 21.333-21.333h981.333c11.776 0 21.333 9.557 21.333 21.333v661.333h-1024v-661.333zM106.667 277.333c-11.776 0-21.333 9.557-21.333 21.333s9.557 21.333 21.333 21.333h149.333v128h-149.333c-11.776 0-21.333 9.557-21.333 21.333s9.557 21.333 21.333 21.333h149.333v64c0 11.776 9.557 21.333 21.333 21.333s21.333-9.557 21.333-21.333v-64h192v64c0 11.776 9.557 21.333 21.333 21.333s21.333-9.557 21.333-21.333v-64h192v64c0 11.776 9.557 21.333 21.333 21.333s21.333-9.557 21.333-21.333v-64h149.333c11.776 0 21.333-9.557 21.333-21.333s-9.557-21.333-21.333-21.333h-149.333v-128h149.333c11.776 0 21.333-9.557 21.333-21.333s-9.557-21.333-21.333-21.333h-149.333v-128h149.333c11.776 0 21.333-9.557 21.333-21.333s-9.557-21.333-21.333-21.333h-149.333v-64c0-11.776-9.557-21.333-21.333-21.333s-21.333 9.557-21.333 21.333v64h-192v-64c0-11.776-9.557-21.333-21.333-21.333s-21.333 9.557-21.333 21.333v64h-192v-64c0-11.776-9.557-21.333-21.333-21.333s-21.333 9.557-21.333 21.333v64h-149.333c-11.776 0-21.333 9.557-21.333 21.333s9.557 21.333 21.333 21.333h149.333v128h-149.333zM1002.667 874.667h-149.333v64c0 11.776-9.557 21.333-21.333 21.333h-128c-11.776 0-21.333-9.557-21.333-21.333v-64h-341.333v64c0 11.776-9.557 21.333-21.333 21.333h-128c-11.776 0-21.333-9.557-21.333-21.333v-64h-149.333c-11.776 0-21.333-9.557-21.333-21.333v-192h1024v192c0 11.776-9.557 21.333-21.333 21.333zM298.667 789.333h-85.333v128h85.333v-128zM810.667 789.333h-85.333v128h85.333v-128z" />
<glyph unicode="&#xe631;" glyph-name="button-power" d="M655.957 679.381c-20.224 12.203-46.421 5.76-58.581-14.464-12.203-20.181-5.76-46.379 14.421-58.581 71.253-43.051 113.707-118.315 113.536-201.472-0.128-62.677-24.661-121.557-69.077-165.803-44.331-44.117-103.083-68.395-165.589-68.395h-0.469c-129.365 0.256-234.453 105.728-234.197 235.136 0.171 82.56 42.411 157.44 113.067 200.32 20.181 12.203 26.581 38.443 14.379 58.581-12.245 20.139-38.443 26.581-58.624 14.379-96.341-58.453-153.941-160.555-154.155-273.109-0.171-85.504 32.939-165.931 93.269-226.475s140.672-93.995 226.133-94.165h0.683c85.205 0 165.333 33.109 225.749 93.312 60.544 60.331 94.037 140.629 94.208 226.091 0.171 111.616-59.136 216.832-154.752 274.645zM490.667 426.667h0.085c23.552 0 42.667 19.029 42.667 42.581l0.597 277.333c0 23.595-19.029 42.709-42.624 42.752-23.296-0.811-42.709-18.987-42.709-42.581l-0.597-277.333c0-23.552 19.029-42.709 42.581-42.752z" />
<glyph unicode="&#xe632;" glyph-name="bubble-chat" d="M511.872 921.472c-282.325 0-512-189.184-512-421.675 0-109.781 50.219-212.693 141.867-291.456l-102.827-205.312c-4.096-8.107-2.56-17.877 3.755-24.363 4.139-4.267 9.685-6.485 15.317-6.485l9.003 2.005 274.645 127.787c54.528-15.787 111.744-23.808 170.24-23.808 282.325 0 512 189.141 512 421.632s-229.717 421.675-512 421.675z" />
<glyph unicode="&#xe633;" glyph-name="border-top" d="M42.667 874.667h938.667c23.595 0 42.667 19.072 42.667 42.667s-19.072 42.667-42.667 42.667h-938.667c-23.595 0-42.667-19.072-42.667-42.667s19.072-42.667 42.667-42.667zM1024-21.333c0-23.564-19.103-42.667-42.667-42.667s-42.667 19.103-42.667 42.667c0 23.564 19.103 42.667 42.667 42.667s42.667-19.103 42.667-42.667zM1024 112.768c0-23.564-19.103-42.667-42.667-42.667s-42.667 19.103-42.667 42.667c0 23.564 19.103 42.667 42.667 42.667s42.667-19.103 42.667-42.667zM1024 246.869c0-23.564-19.103-42.667-42.667-42.667s-42.667 19.103-42.667 42.667c0 23.564 19.103 42.667 42.667 42.667s42.667-19.103 42.667-42.667zM1024 380.971c0-23.564-19.103-42.667-42.667-42.667s-42.667 19.103-42.667 42.667c0 23.564 19.103 42.667 42.667 42.667s42.667-19.103 42.667-42.667zM1024 515.029c0-23.564-19.103-42.667-42.667-42.667s-42.667 19.103-42.667 42.667c0 23.564 19.103 42.667 42.667 42.667s42.667-19.103 42.667-42.667zM1024 649.131c0-23.564-19.103-42.667-42.667-42.667s-42.667 19.103-42.667 42.667c0 23.564 19.103 42.667 42.667 42.667s42.667-19.103 42.667-42.667zM1024 783.232c0-23.564-19.103-42.667-42.667-42.667s-42.667 19.103-42.667 42.667c0 23.564 19.103 42.667 42.667 42.667s42.667-19.103 42.667-42.667zM85.333 112.768c0-23.564-19.103-42.667-42.667-42.667s-42.667 19.103-42.667 42.667c0 23.564 19.103 42.667 42.667 42.667s42.667-19.103 42.667-42.667zM85.333 246.869c0-23.564-19.103-42.667-42.667-42.667s-42.667 19.103-42.667 42.667c0 23.564 19.103 42.667 42.667 42.667s42.667-19.103 42.667-42.667zM85.333 380.971c0-23.564-19.103-42.667-42.667-42.667s-42.667 19.103-42.667 42.667c0 23.564 19.103 42.667 42.667 42.667s42.667-19.103 42.667-42.667zM85.333 515.029c0-23.564-19.103-42.667-42.667-42.667s-42.667 19.103-42.667 42.667c0 23.564 19.103 42.667 42.667 42.667s42.667-19.103 42.667-42.667zM85.333 649.131c0-23.564-19.103-42.667-42.667-42.667s-42.667 19.103-42.667 42.667c0 23.564 19.103 42.667 42.667 42.667s42.667-19.103 42.667-42.667zM85.333 783.232c0-23.564-19.103-42.667-42.667-42.667s-42.667 19.103-42.667 42.667c0 23.564 19.103 42.667 42.667 42.667s42.667-19.103 42.667-42.667zM554.667 94.464c0-23.564-19.103-42.667-42.667-42.667s-42.667 19.103-42.667 42.667c0 23.564 19.103 42.667 42.667 42.667s42.667-19.103 42.667-42.667zM554.667 228.565c0-23.564-19.103-42.667-42.667-42.667s-42.667 19.103-42.667 42.667c0 23.564 19.103 42.667 42.667 42.667s42.667-19.103 42.667-42.667zM554.667 362.667c0-23.564-19.103-42.667-42.667-42.667s-42.667 19.103-42.667 42.667c0 23.564 19.103 42.667 42.667 42.667s42.667-19.103 42.667-42.667zM554.667 533.333c0-23.564-19.103-42.667-42.667-42.667s-42.667 19.103-42.667 42.667c0 23.564 19.103 42.667 42.667 42.667s42.667-19.103 42.667-42.667zM554.667 667.435c0-23.564-19.103-42.667-42.667-42.667s-42.667 19.103-42.667 42.667c0 23.564 19.103 42.667 42.667 42.667s42.667-19.103 42.667-42.667zM554.667 801.536c0-23.564-19.103-42.667-42.667-42.667s-42.667 19.103-42.667 42.667c0 23.564 19.103 42.667 42.667 42.667s42.667-19.103 42.667-42.667zM889.899-21.333c0-23.564-19.103-42.667-42.667-42.667s-42.667 19.103-42.667 42.667c0 23.564 19.103 42.667 42.667 42.667s42.667-19.103 42.667-42.667zM755.797-21.333c0-23.564-19.103-42.667-42.667-42.667s-42.667 19.103-42.667 42.667c0 23.564 19.103 42.667 42.667 42.667s42.667-19.103 42.667-42.667zM621.696-21.333c0-23.564-19.103-42.667-42.667-42.667s-42.667 19.103-42.667 42.667c0 23.564 19.103 42.667 42.667 42.667s42.667-19.103 42.667-42.667zM487.637-21.333c0-23.564-19.103-42.667-42.667-42.667s-42.667 19.103-42.667 42.667c0 23.564 19.103 42.667 42.667 42.667s42.667-19.103 42.667-42.667zM353.536-21.333c0-23.564-19.103-42.667-42.667-42.667s-42.667 19.103-42.667 42.667c0 23.564 19.103 42.667 42.667 42.667s42.667-19.103 42.667-42.667zM219.435-21.333c0-23.564-19.103-42.667-42.667-42.667s-42.667 19.103-42.667 42.667c0 23.564 19.103 42.667 42.667 42.667s42.667-19.103 42.667-42.667zM85.333-21.333c0-23.564-19.103-42.667-42.667-42.667s-42.667 19.103-42.667 42.667c0 23.564 19.103 42.667 42.667 42.667s42.667-19.103 42.667-42.667zM908.203 448c0-23.564-19.103-42.667-42.667-42.667s-42.667 19.103-42.667 42.667c0 23.564 19.103 42.667 42.667 42.667s42.667-19.103 42.667-42.667zM774.101 448c0-23.564-19.103-42.667-42.667-42.667s-42.667 19.103-42.667 42.667c0 23.564 19.103 42.667 42.667 42.667s42.667-19.103 42.667-42.667zM640 448c0-23.564-19.103-42.667-42.667-42.667s-42.667 19.103-42.667 42.667c0 23.564 19.103 42.667 42.667 42.667s42.667-19.103 42.667-42.667zM469.333 448c0-23.564-19.103-42.667-42.667-42.667s-42.667 19.103-42.667 42.667c0 23.564 19.103 42.667 42.667 42.667s42.667-19.103 42.667-42.667zM335.232 448c0-23.564-19.103-42.667-42.667-42.667s-42.667 19.103-42.667 42.667c0 23.564 19.103 42.667 42.667 42.667s42.667-19.103 42.667-42.667zM201.131 448c0-23.564-19.103-42.667-42.667-42.667s-42.667 19.103-42.667 42.667c0 23.564 19.103 42.667 42.667 42.667s42.667-19.103 42.667-42.667z" />
<glyph unicode="&#xe634;" glyph-name="border-right" d="M938.667 917.333v-938.667c0-23.595 19.072-42.667 42.667-42.667s42.667 19.072 42.667 42.667v938.667c0 23.595-19.072 42.667-42.667 42.667s-42.667-19.072-42.667-42.667zM85.333-21.333c0-23.564-19.103-42.667-42.667-42.667s-42.667 19.103-42.667 42.667c0 23.564 19.103 42.667 42.667 42.667s42.667-19.103 42.667-42.667zM219.435-21.333c0-23.564-19.103-42.667-42.667-42.667s-42.667 19.103-42.667 42.667c0 23.564 19.103 42.667 42.667 42.667s42.667-19.103 42.667-42.667zM353.536-21.333c0-23.564-19.103-42.667-42.667-42.667s-42.667 19.103-42.667 42.667c0 23.564 19.103 42.667 42.667 42.667s42.667-19.103 42.667-42.667zM487.637-21.333c0-23.564-19.103-42.667-42.667-42.667s-42.667 19.103-42.667 42.667c0 23.564 19.103 42.667 42.667 42.667s42.667-19.103 42.667-42.667zM621.696-21.333c0-23.564-19.103-42.667-42.667-42.667s-42.667 19.103-42.667 42.667c0 23.564 19.103 42.667 42.667 42.667s42.667-19.103 42.667-42.667zM755.797-21.333c0-23.564-19.103-42.667-42.667-42.667s-42.667 19.103-42.667 42.667c0 23.564 19.103 42.667 42.667 42.667s42.667-19.103 42.667-42.667zM889.899-21.333c0-23.564-19.103-42.667-42.667-42.667s-42.667 19.103-42.667 42.667c0 23.564 19.103 42.667 42.667 42.667s42.667-19.103 42.667-42.667zM219.435 917.333c0-23.564-19.103-42.667-42.667-42.667s-42.667 19.103-42.667 42.667c0 23.564 19.103 42.667 42.667 42.667s42.667-19.103 42.667-42.667zM353.536 917.333c0-23.564-19.103-42.667-42.667-42.667s-42.667 19.103-42.667 42.667c0 23.564 19.103 42.667 42.667 42.667s42.667-19.103 42.667-42.667zM487.637 917.333c0-23.564-19.103-42.667-42.667-42.667s-42.667 19.103-42.667 42.667c0 23.564 19.103 42.667 42.667 42.667s42.667-19.103 42.667-42.667zM621.696 917.333c0-23.564-19.103-42.667-42.667-42.667s-42.667 19.103-42.667 42.667c0 23.564 19.103 42.667 42.667 42.667s42.667-19.103 42.667-42.667zM755.797 917.333c0-23.564-19.103-42.667-42.667-42.667s-42.667 19.103-42.667 42.667c0 23.564 19.103 42.667 42.667 42.667s42.667-19.103 42.667-42.667zM889.899 917.333c0-23.564-19.103-42.667-42.667-42.667s-42.667 19.103-42.667 42.667c0 23.564 19.103 42.667 42.667 42.667s42.667-19.103 42.667-42.667zM201.131 448c0-23.564-19.103-42.667-42.667-42.667s-42.667 19.103-42.667 42.667c0 23.564 19.103 42.667 42.667 42.667s42.667-19.103 42.667-42.667zM335.232 448c0-23.564-19.103-42.667-42.667-42.667s-42.667 19.103-42.667 42.667c0 23.564 19.103 42.667 42.667 42.667s42.667-19.103 42.667-42.667zM469.333 448c0-23.564-19.103-42.667-42.667-42.667s-42.667 19.103-42.667 42.667c0 23.564 19.103 42.667 42.667 42.667s42.667-19.103 42.667-42.667zM640 448c0-23.564-19.103-42.667-42.667-42.667s-42.667 19.103-42.667 42.667c0 23.564 19.103 42.667 42.667 42.667s42.667-19.103 42.667-42.667zM774.101 448c0-23.564-19.103-42.667-42.667-42.667s-42.667 19.103-42.667 42.667c0 23.564 19.103 42.667 42.667 42.667s42.667-19.103 42.667-42.667zM908.203 448c0-23.564-19.103-42.667-42.667-42.667s-42.667 19.103-42.667 42.667c0 23.564 19.103 42.667 42.667 42.667s42.667-19.103 42.667-42.667zM85.333 112.768c0-23.564-19.103-42.667-42.667-42.667s-42.667 19.103-42.667 42.667c0 23.564 19.103 42.667 42.667 42.667s42.667-19.103 42.667-42.667zM85.333 246.869c0-23.564-19.103-42.667-42.667-42.667s-42.667 19.103-42.667 42.667c0 23.564 19.103 42.667 42.667 42.667s42.667-19.103 42.667-42.667zM85.333 380.971c0-23.564-19.103-42.667-42.667-42.667s-42.667 19.103-42.667 42.667c0 23.564 19.103 42.667 42.667 42.667s42.667-19.103 42.667-42.667zM85.333 515.029c0-23.564-19.103-42.667-42.667-42.667s-42.667 19.103-42.667 42.667c0 23.564 19.103 42.667 42.667 42.667s42.667-19.103 42.667-42.667zM85.333 649.131c0-23.564-19.103-42.667-42.667-42.667s-42.667 19.103-42.667 42.667c0 23.564 19.103 42.667 42.667 42.667s42.667-19.103 42.667-42.667zM85.333 783.232c0-23.564-19.103-42.667-42.667-42.667s-42.667 19.103-42.667 42.667c0 23.564 19.103 42.667 42.667 42.667s42.667-19.103 42.667-42.667zM85.333 917.333c0-23.564-19.103-42.667-42.667-42.667s-42.667 19.103-42.667 42.667c0 23.564 19.103 42.667 42.667 42.667s42.667-19.103 42.667-42.667zM554.667 94.464c0-23.564-19.103-42.667-42.667-42.667s-42.667 19.103-42.667 42.667c0 23.564 19.103 42.667 42.667 42.667s42.667-19.103 42.667-42.667zM554.667 228.565c0-23.564-19.103-42.667-42.667-42.667s-42.667 19.103-42.667 42.667c0 23.564 19.103 42.667 42.667 42.667s42.667-19.103 42.667-42.667zM554.667 362.667c0-23.564-19.103-42.667-42.667-42.667s-42.667 19.103-42.667 42.667c0 23.564 19.103 42.667 42.667 42.667s42.667-19.103 42.667-42.667zM554.667 533.333c0-23.564-19.103-42.667-42.667-42.667s-42.667 19.103-42.667 42.667c0 23.564 19.103 42.667 42.667 42.667s42.667-19.103 42.667-42.667zM554.667 667.435c0-23.564-19.103-42.667-42.667-42.667s-42.667 19.103-42.667 42.667c0 23.564 19.103 42.667 42.667 42.667s42.667-19.103 42.667-42.667zM554.667 801.536c0-23.564-19.103-42.667-42.667-42.667s-42.667 19.103-42.667 42.667c0 23.564 19.103 42.667 42.667 42.667s42.667-19.103 42.667-42.667z" />
<glyph unicode="&#xe635;" glyph-name="border-outside" d="M938.667 960h-853.333c-47.061 0-85.333-38.272-85.333-85.333v-853.333c0-47.061 38.272-85.333 85.333-85.333h853.333c47.061 0 85.333 38.272 85.333 85.333v853.333c0 47.061-38.272 85.333-85.333 85.333zM85.333 21.333v853.333h853.333l0.043-853.333h-853.376zM554.667 801.536c0-23.564-19.103-42.667-42.667-42.667s-42.667 19.103-42.667 42.667c0 23.564 19.103 42.667 42.667 42.667s42.667-19.103 42.667-42.667zM554.667 667.435c0-23.564-19.103-42.667-42.667-42.667s-42.667 19.103-42.667 42.667c0 23.564 19.103 42.667 42.667 42.667s42.667-19.103 42.667-42.667zM554.667 533.333c0-23.564-19.103-42.667-42.667-42.667s-42.667 19.103-42.667 42.667c0 23.564 19.103 42.667 42.667 42.667s42.667-19.103 42.667-42.667zM554.667 362.667c0-23.564-19.103-42.667-42.667-42.667s-42.667 19.103-42.667 42.667c0 23.564 19.103 42.667 42.667 42.667s42.667-19.103 42.667-42.667zM554.667 228.565c0-23.564-19.103-42.667-42.667-42.667s-42.667 19.103-42.667 42.667c0 23.564 19.103 42.667 42.667 42.667s42.667-19.103 42.667-42.667zM554.667 94.464c0-23.564-19.103-42.667-42.667-42.667s-42.667 19.103-42.667 42.667c0 23.564 19.103 42.667 42.667 42.667s42.667-19.103 42.667-42.667zM201.131 448c0-23.564-19.103-42.667-42.667-42.667s-42.667 19.103-42.667 42.667c0 23.564 19.103 42.667 42.667 42.667s42.667-19.103 42.667-42.667zM335.232 448c0-23.564-19.103-42.667-42.667-42.667s-42.667 19.103-42.667 42.667c0 23.564 19.103 42.667 42.667 42.667s42.667-19.103 42.667-42.667zM469.333 448c0-23.564-19.103-42.667-42.667-42.667s-42.667 19.103-42.667 42.667c0 23.564 19.103 42.667 42.667 42.667s42.667-19.103 42.667-42.667zM640 448c0-23.564-19.103-42.667-42.667-42.667s-42.667 19.103-42.667 42.667c0 23.564 19.103 42.667 42.667 42.667s42.667-19.103 42.667-42.667zM774.101 448c0-23.564-19.103-42.667-42.667-42.667s-42.667 19.103-42.667 42.667c0 23.564 19.103 42.667 42.667 42.667s42.667-19.103 42.667-42.667zM908.203 448c0-23.564-19.103-42.667-42.667-42.667s-42.667 19.103-42.667 42.667c0 23.564 19.103 42.667 42.667 42.667s42.667-19.103 42.667-42.667z" />
<glyph unicode="&#xe636;" glyph-name="border-none" d="M85.333 917.333c0-23.564-19.103-42.667-42.667-42.667s-42.667 19.103-42.667 42.667c0 23.564 19.103 42.667 42.667 42.667s42.667-19.103 42.667-42.667zM85.333 783.232c0-23.564-19.103-42.667-42.667-42.667s-42.667 19.103-42.667 42.667c0 23.564 19.103 42.667 42.667 42.667s42.667-19.103 42.667-42.667zM85.333 649.131c0-23.564-19.103-42.667-42.667-42.667s-42.667 19.103-42.667 42.667c0 23.564 19.103 42.667 42.667 42.667s42.667-19.103 42.667-42.667zM85.333 515.029c0-23.564-19.103-42.667-42.667-42.667s-42.667 19.103-42.667 42.667c0 23.564 19.103 42.667 42.667 42.667s42.667-19.103 42.667-42.667zM85.333 380.971c0-23.564-19.103-42.667-42.667-42.667s-42.667 19.103-42.667 42.667c0 23.564 19.103 42.667 42.667 42.667s42.667-19.103 42.667-42.667zM85.333 246.869c0-23.564-19.103-42.667-42.667-42.667s-42.667 19.103-42.667 42.667c0 23.564 19.103 42.667 42.667 42.667s42.667-19.103 42.667-42.667zM85.333 112.768c0-23.564-19.103-42.667-42.667-42.667s-42.667 19.103-42.667 42.667c0 23.564 19.103 42.667 42.667 42.667s42.667-19.103 42.667-42.667zM1024 783.232c0-23.564-19.103-42.667-42.667-42.667s-42.667 19.103-42.667 42.667c0 23.564 19.103 42.667 42.667 42.667s42.667-19.103 42.667-42.667zM1024 649.131c0-23.564-19.103-42.667-42.667-42.667s-42.667 19.103-42.667 42.667c0 23.564 19.103 42.667 42.667 42.667s42.667-19.103 42.667-42.667zM1024 515.029c0-23.564-19.103-42.667-42.667-42.667s-42.667 19.103-42.667 42.667c0 23.564 19.103 42.667 42.667 42.667s42.667-19.103 42.667-42.667zM1024 380.971c0-23.564-19.103-42.667-42.667-42.667s-42.667 19.103-42.667 42.667c0 23.564 19.103 42.667 42.667 42.667s42.667-19.103 42.667-42.667zM1024 246.869c0-23.564-19.103-42.667-42.667-42.667s-42.667 19.103-42.667 42.667c0 23.564 19.103 42.667 42.667 42.667s42.667-19.103 42.667-42.667zM1024 112.768c0-23.564-19.103-42.667-42.667-42.667s-42.667 19.103-42.667 42.667c0 23.564 19.103 42.667 42.667 42.667s42.667-19.103 42.667-42.667zM554.667 801.536c0-23.564-19.103-42.667-42.667-42.667s-42.667 19.103-42.667 42.667c0 23.564 19.103 42.667 42.667 42.667s42.667-19.103 42.667-42.667zM554.667 667.435c0-23.564-19.103-42.667-42.667-42.667s-42.667 19.103-42.667 42.667c0 23.564 19.103 42.667 42.667 42.667s42.667-19.103 42.667-42.667zM554.667 533.333c0-23.564-19.103-42.667-42.667-42.667s-42.667 19.103-42.667 42.667c0 23.564 19.103 42.667 42.667 42.667s42.667-19.103 42.667-42.667zM554.667 362.667c0-23.564-19.103-42.667-42.667-42.667s-42.667 19.103-42.667 42.667c0 23.564 19.103 42.667 42.667 42.667s42.667-19.103 42.667-42.667zM554.667 228.565c0-23.564-19.103-42.667-42.667-42.667s-42.667 19.103-42.667 42.667c0 23.564 19.103 42.667 42.667 42.667s42.667-19.103 42.667-42.667zM554.667 94.464c0-23.564-19.103-42.667-42.667-42.667s-42.667 19.103-42.667 42.667c0 23.564 19.103 42.667 42.667 42.667s42.667-19.103 42.667-42.667zM85.333-21.333c0-23.564-19.103-42.667-42.667-42.667s-42.667 19.103-42.667 42.667c0 23.564 19.103 42.667 42.667 42.667s42.667-19.103 42.667-42.667zM219.435 917.333c0-23.564-19.103-42.667-42.667-42.667s-42.667 19.103-42.667 42.667c0 23.564 19.103 42.667 42.667 42.667s42.667-19.103 42.667-42.667zM353.536 917.333c0-23.564-19.103-42.667-42.667-42.667s-42.667 19.103-42.667 42.667c0 23.564 19.103 42.667 42.667 42.667s42.667-19.103 42.667-42.667zM487.637 917.333c0-23.564-19.103-42.667-42.667-42.667s-42.667 19.103-42.667 42.667c0 23.564 19.103 42.667 42.667 42.667s42.667-19.103 42.667-42.667zM621.696 917.333c0-23.564-19.103-42.667-42.667-42.667s-42.667 19.103-42.667 42.667c0 23.564 19.103 42.667 42.667 42.667s42.667-19.103 42.667-42.667zM755.797 917.333c0-23.564-19.103-42.667-42.667-42.667s-42.667 19.103-42.667 42.667c0 23.564 19.103 42.667 42.667 42.667s42.667-19.103 42.667-42.667zM889.899 917.333c0-23.564-19.103-42.667-42.667-42.667s-42.667 19.103-42.667 42.667c0 23.564 19.103 42.667 42.667 42.667s42.667-19.103 42.667-42.667zM1024 917.333c0-23.564-19.103-42.667-42.667-42.667s-42.667 19.103-42.667 42.667c0 23.564 19.103 42.667 42.667 42.667s42.667-19.103 42.667-42.667zM219.435-21.333c0-23.564-19.103-42.667-42.667-42.667s-42.667 19.103-42.667 42.667c0 23.564 19.103 42.667 42.667 42.667s42.667-19.103 42.667-42.667zM353.536-21.333c0-23.564-19.103-42.667-42.667-42.667s-42.667 19.103-42.667 42.667c0 23.564 19.103 42.667 42.667 42.667s42.667-19.103 42.667-42.667zM487.637-21.333c0-23.564-19.103-42.667-42.667-42.667s-42.667 19.103-42.667 42.667c0 23.564 19.103 42.667 42.667 42.667s42.667-19.103 42.667-42.667zM621.696-21.333c0-23.564-19.103-42.667-42.667-42.667s-42.667 19.103-42.667 42.667c0 23.564 19.103 42.667 42.667 42.667s42.667-19.103 42.667-42.667zM755.797-21.333c0-23.564-19.103-42.667-42.667-42.667s-42.667 19.103-42.667 42.667c0 23.564 19.103 42.667 42.667 42.667s42.667-19.103 42.667-42.667zM889.899-21.333c0-23.564-19.103-42.667-42.667-42.667s-42.667 19.103-42.667 42.667c0 23.564 19.103 42.667 42.667 42.667s42.667-19.103 42.667-42.667zM201.131 448c0-23.564-19.103-42.667-42.667-42.667s-42.667 19.103-42.667 42.667c0 23.564 19.103 42.667 42.667 42.667s42.667-19.103 42.667-42.667zM335.232 448c0-23.564-19.103-42.667-42.667-42.667s-42.667 19.103-42.667 42.667c0 23.564 19.103 42.667 42.667 42.667s42.667-19.103 42.667-42.667zM469.333 448c0-23.564-19.103-42.667-42.667-42.667s-42.667 19.103-42.667 42.667c0 23.564 19.103 42.667 42.667 42.667s42.667-19.103 42.667-42.667zM640 448c0-23.564-19.103-42.667-42.667-42.667s-42.667 19.103-42.667 42.667c0 23.564 19.103 42.667 42.667 42.667s42.667-19.103 42.667-42.667zM774.101 448c0-23.564-19.103-42.667-42.667-42.667s-42.667 19.103-42.667 42.667c0 23.564 19.103 42.667 42.667 42.667s42.667-19.103 42.667-42.667zM908.203 448c0-23.564-19.103-42.667-42.667-42.667s-42.667 19.103-42.667 42.667c0 23.564 19.103 42.667 42.667 42.667s42.667-19.103 42.667-42.667zM1024-21.333c0-23.564-19.103-42.667-42.667-42.667s-42.667 19.103-42.667 42.667c0 23.564 19.103 42.667 42.667 42.667s42.667-19.103 42.667-42.667z" />
<glyph unicode="&#xe637;" glyph-name="border-left" d="M85.333-21.333v938.667c0 23.595-19.072 42.667-42.667 42.667s-42.667-19.072-42.667-42.667v-938.667c0-23.595 19.072-42.667 42.667-42.667s42.667 19.072 42.667 42.667zM1024 917.333c0-23.564-19.103-42.667-42.667-42.667s-42.667 19.103-42.667 42.667c0 23.564 19.103 42.667 42.667 42.667s42.667-19.103 42.667-42.667zM889.899 917.333c0-23.564-19.103-42.667-42.667-42.667s-42.667 19.103-42.667 42.667c0 23.564 19.103 42.667 42.667 42.667s42.667-19.103 42.667-42.667zM755.797 917.333c0-23.564-19.103-42.667-42.667-42.667s-42.667 19.103-42.667 42.667c0 23.564 19.103 42.667 42.667 42.667s42.667-19.103 42.667-42.667zM621.696 917.333c0-23.564-19.103-42.667-42.667-42.667s-42.667 19.103-42.667 42.667c0 23.564 19.103 42.667 42.667 42.667s42.667-19.103 42.667-42.667zM487.637 917.333c0-23.564-19.103-42.667-42.667-42.667s-42.667 19.103-42.667 42.667c0 23.564 19.103 42.667 42.667 42.667s42.667-19.103 42.667-42.667zM353.536 917.333c0-23.564-19.103-42.667-42.667-42.667s-42.667 19.103-42.667 42.667c0 23.564 19.103 42.667 42.667 42.667s42.667-19.103 42.667-42.667zM219.435 917.333c0-23.564-19.103-42.667-42.667-42.667s-42.667 19.103-42.667 42.667c0 23.564 19.103 42.667 42.667 42.667s42.667-19.103 42.667-42.667zM889.899-21.333c0-23.564-19.103-42.667-42.667-42.667s-42.667 19.103-42.667 42.667c0 23.564 19.103 42.667 42.667 42.667s42.667-19.103 42.667-42.667zM755.797-21.333c0-23.564-19.103-42.667-42.667-42.667s-42.667 19.103-42.667 42.667c0 23.564 19.103 42.667 42.667 42.667s42.667-19.103 42.667-42.667zM621.696-21.333c0-23.564-19.103-42.667-42.667-42.667s-42.667 19.103-42.667 42.667c0 23.564 19.103 42.667 42.667 42.667s42.667-19.103 42.667-42.667zM487.637-21.333c0-23.564-19.103-42.667-42.667-42.667s-42.667 19.103-42.667 42.667c0 23.564 19.103 42.667 42.667 42.667s42.667-19.103 42.667-42.667zM353.536-21.333c0-23.564-19.103-42.667-42.667-42.667s-42.667 19.103-42.667 42.667c0 23.564 19.103 42.667 42.667 42.667s42.667-19.103 42.667-42.667zM219.435-21.333c0-23.564-19.103-42.667-42.667-42.667s-42.667 19.103-42.667 42.667c0 23.564 19.103 42.667 42.667 42.667s42.667-19.103 42.667-42.667zM908.203 448c0-23.564-19.103-42.667-42.667-42.667s-42.667 19.103-42.667 42.667c0 23.564 19.103 42.667 42.667 42.667s42.667-19.103 42.667-42.667zM774.101 448c0-23.564-19.103-42.667-42.667-42.667s-42.667 19.103-42.667 42.667c0 23.564 19.103 42.667 42.667 42.667s42.667-19.103 42.667-42.667zM640 448c0-23.564-19.103-42.667-42.667-42.667s-42.667 19.103-42.667 42.667c0 23.564 19.103 42.667 42.667 42.667s42.667-19.103 42.667-42.667zM469.333 448c0-23.564-19.103-42.667-42.667-42.667s-42.667 19.103-42.667 42.667c0 23.564 19.103 42.667 42.667 42.667s42.667-19.103 42.667-42.667zM335.232 448c0-23.564-19.103-42.667-42.667-42.667s-42.667 19.103-42.667 42.667c0 23.564 19.103 42.667 42.667 42.667s42.667-19.103 42.667-42.667zM201.131 448c0-23.564-19.103-42.667-42.667-42.667s-42.667 19.103-42.667 42.667c0 23.564 19.103 42.667 42.667 42.667s42.667-19.103 42.667-42.667zM1024 783.232c0-23.564-19.103-42.667-42.667-42.667s-42.667 19.103-42.667 42.667c0 23.564 19.103 42.667 42.667 42.667s42.667-19.103 42.667-42.667zM1024 649.131c0-23.564-19.103-42.667-42.667-42.667s-42.667 19.103-42.667 42.667c0 23.564 19.103 42.667 42.667 42.667s42.667-19.103 42.667-42.667zM1024 515.029c0-23.564-19.103-42.667-42.667-42.667s-42.667 19.103-42.667 42.667c0 23.564 19.103 42.667 42.667 42.667s42.667-19.103 42.667-42.667zM1024 380.971c0-23.564-19.103-42.667-42.667-42.667s-42.667 19.103-42.667 42.667c0 23.564 19.103 42.667 42.667 42.667s42.667-19.103 42.667-42.667zM1024 246.869c0-23.564-19.103-42.667-42.667-42.667s-42.667 19.103-42.667 42.667c0 23.564 19.103 42.667 42.667 42.667s42.667-19.103 42.667-42.667zM1024 112.768c0-23.564-19.103-42.667-42.667-42.667s-42.667 19.103-42.667 42.667c0 23.564 19.103 42.667 42.667 42.667s42.667-19.103 42.667-42.667zM1024-21.333c0-23.564-19.103-42.667-42.667-42.667s-42.667 19.103-42.667 42.667c0 23.564 19.103 42.667 42.667 42.667s42.667-19.103 42.667-42.667zM554.667 801.536c0-23.564-19.103-42.667-42.667-42.667s-42.667 19.103-42.667 42.667c0 23.564 19.103 42.667 42.667 42.667s42.667-19.103 42.667-42.667zM554.667 667.435c0-23.564-19.103-42.667-42.667-42.667s-42.667 19.103-42.667 42.667c0 23.564 19.103 42.667 42.667 42.667s42.667-19.103 42.667-42.667zM554.667 533.333c0-23.564-19.103-42.667-42.667-42.667s-42.667 19.103-42.667 42.667c0 23.564 19.103 42.667 42.667 42.667s42.667-19.103 42.667-42.667zM554.667 362.667c0-23.564-19.103-42.667-42.667-42.667s-42.667 19.103-42.667 42.667c0 23.564 19.103 42.667 42.667 42.667s42.667-19.103 42.667-42.667zM554.667 228.565c0-23.564-19.103-42.667-42.667-42.667s-42.667 19.103-42.667 42.667c0 23.564 19.103 42.667 42.667 42.667s42.667-19.103 42.667-42.667zM554.667 94.464c0-23.564-19.103-42.667-42.667-42.667s-42.667 19.103-42.667 42.667c0 23.564 19.103 42.667 42.667 42.667s42.667-19.103 42.667-42.667z" />
<glyph unicode="&#xe638;" glyph-name="border-inside" d="M896 490.667h-341.333v341.333c0 23.595-19.072 42.667-42.667 42.667s-42.667-19.072-42.667-42.667v-341.333h-341.333c-23.595 0-42.667-19.072-42.667-42.667s19.072-42.667 42.667-42.667h341.333v-341.333c0-23.595 19.072-42.667 42.667-42.667s42.667 19.072 42.667 42.667v341.333h341.333c23.595 0 42.667 19.072 42.667 42.667s-19.072 42.667-42.667 42.667zM85.333 917.333c0-23.564-19.103-42.667-42.667-42.667s-42.667 19.103-42.667 42.667c0 23.564 19.103 42.667 42.667 42.667s42.667-19.103 42.667-42.667zM85.333 783.232c0-23.564-19.103-42.667-42.667-42.667s-42.667 19.103-42.667 42.667c0 23.564 19.103 42.667 42.667 42.667s42.667-19.103 42.667-42.667zM85.333 649.131c0-23.564-19.103-42.667-42.667-42.667s-42.667 19.103-42.667 42.667c0 23.564 19.103 42.667 42.667 42.667s42.667-19.103 42.667-42.667zM85.333 515.029c0-23.564-19.103-42.667-42.667-42.667s-42.667 19.103-42.667 42.667c0 23.564 19.103 42.667 42.667 42.667s42.667-19.103 42.667-42.667zM85.333 380.971c0-23.564-19.103-42.667-42.667-42.667s-42.667 19.103-42.667 42.667c0 23.564 19.103 42.667 42.667 42.667s42.667-19.103 42.667-42.667zM85.333 246.869c0-23.564-19.103-42.667-42.667-42.667s-42.667 19.103-42.667 42.667c0 23.564 19.103 42.667 42.667 42.667s42.667-19.103 42.667-42.667zM85.333 112.768c0-23.564-19.103-42.667-42.667-42.667s-42.667 19.103-42.667 42.667c0 23.564 19.103 42.667 42.667 42.667s42.667-19.103 42.667-42.667zM1024 783.232c0-23.564-19.103-42.667-42.667-42.667s-42.667 19.103-42.667 42.667c0 23.564 19.103 42.667 42.667 42.667s42.667-19.103 42.667-42.667zM1024 649.131c0-23.564-19.103-42.667-42.667-42.667s-42.667 19.103-42.667 42.667c0 23.564 19.103 42.667 42.667 42.667s42.667-19.103 42.667-42.667zM1024 515.029c0-23.564-19.103-42.667-42.667-42.667s-42.667 19.103-42.667 42.667c0 23.564 19.103 42.667 42.667 42.667s42.667-19.103 42.667-42.667zM1024 380.971c0-23.564-19.103-42.667-42.667-42.667s-42.667 19.103-42.667 42.667c0 23.564 19.103 42.667 42.667 42.667s42.667-19.103 42.667-42.667zM1024 246.869c0-23.564-19.103-42.667-42.667-42.667s-42.667 19.103-42.667 42.667c0 23.564 19.103 42.667 42.667 42.667s42.667-19.103 42.667-42.667zM1024 112.768c0-23.564-19.103-42.667-42.667-42.667s-42.667 19.103-42.667 42.667c0 23.564 19.103 42.667 42.667 42.667s42.667-19.103 42.667-42.667zM85.333-21.333c0-23.564-19.103-42.667-42.667-42.667s-42.667 19.103-42.667 42.667c0 23.564 19.103 42.667 42.667 42.667s42.667-19.103 42.667-42.667zM219.435 917.333c0-23.564-19.103-42.667-42.667-42.667s-42.667 19.103-42.667 42.667c0 23.564 19.103 42.667 42.667 42.667s42.667-19.103 42.667-42.667zM353.536 917.333c0-23.564-19.103-42.667-42.667-42.667s-42.667 19.103-42.667 42.667c0 23.564 19.103 42.667 42.667 42.667s42.667-19.103 42.667-42.667zM487.637 917.333c0-23.564-19.103-42.667-42.667-42.667s-42.667 19.103-42.667 42.667c0 23.564 19.103 42.667 42.667 42.667s42.667-19.103 42.667-42.667zM621.696 917.333c0-23.564-19.103-42.667-42.667-42.667s-42.667 19.103-42.667 42.667c0 23.564 19.103 42.667 42.667 42.667s42.667-19.103 42.667-42.667zM755.797 917.333c0-23.564-19.103-42.667-42.667-42.667s-42.667 19.103-42.667 42.667c0 23.564 19.103 42.667 42.667 42.667s42.667-19.103 42.667-42.667zM889.899 917.333c0-23.564-19.103-42.667-42.667-42.667s-42.667 19.103-42.667 42.667c0 23.564 19.103 42.667 42.667 42.667s42.667-19.103 42.667-42.667zM1024 917.333c0-23.564-19.103-42.667-42.667-42.667s-42.667 19.103-42.667 42.667c0 23.564 19.103 42.667 42.667 42.667s42.667-19.103 42.667-42.667zM219.435-21.333c0-23.564-19.103-42.667-42.667-42.667s-42.667 19.103-42.667 42.667c0 23.564 19.103 42.667 42.667 42.667s42.667-19.103 42.667-42.667zM353.536-21.333c0-23.564-19.103-42.667-42.667-42.667s-42.667 19.103-42.667 42.667c0 23.564 19.103 42.667 42.667 42.667s42.667-19.103 42.667-42.667zM487.637-21.333c0-23.564-19.103-42.667-42.667-42.667s-42.667 19.103-42.667 42.667c0 23.564 19.103 42.667 42.667 42.667s42.667-19.103 42.667-42.667zM621.696-21.333c0-23.564-19.103-42.667-42.667-42.667s-42.667 19.103-42.667 42.667c0 23.564 19.103 42.667 42.667 42.667s42.667-19.103 42.667-42.667zM755.797-21.333c0-23.564-19.103-42.667-42.667-42.667s-42.667 19.103-42.667 42.667c0 23.564 19.103 42.667 42.667 42.667s42.667-19.103 42.667-42.667zM889.899-21.333c0-23.564-19.103-42.667-42.667-42.667s-42.667 19.103-42.667 42.667c0 23.564 19.103 42.667 42.667 42.667s42.667-19.103 42.667-42.667zM1024-21.333c0-23.564-19.103-42.667-42.667-42.667s-42.667 19.103-42.667 42.667c0 23.564 19.103 42.667 42.667 42.667s42.667-19.103 42.667-42.667z" />
<glyph unicode="&#xe639;" glyph-name="border-inside-horizontal" d="M874.667 490.667h-725.333c-23.595 0-42.667-19.072-42.667-42.667s19.072-42.667 42.667-42.667h725.333c23.595 0 42.667 19.072 42.667 42.667s-19.072 42.667-42.667 42.667zM85.333 917.333c0-23.564-19.103-42.667-42.667-42.667s-42.667 19.103-42.667 42.667c0 23.564 19.103 42.667 42.667 42.667s42.667-19.103 42.667-42.667zM85.333 783.232c0-23.564-19.103-42.667-42.667-42.667s-42.667 19.103-42.667 42.667c0 23.564 19.103 42.667 42.667 42.667s42.667-19.103 42.667-42.667zM85.333 649.131c0-23.564-19.103-42.667-42.667-42.667s-42.667 19.103-42.667 42.667c0 23.564 19.103 42.667 42.667 42.667s42.667-19.103 42.667-42.667zM85.333 515.029c0-23.564-19.103-42.667-42.667-42.667s-42.667 19.103-42.667 42.667c0 23.564 19.103 42.667 42.667 42.667s42.667-19.103 42.667-42.667zM85.333 380.971c0-23.564-19.103-42.667-42.667-42.667s-42.667 19.103-42.667 42.667c0 23.564 19.103 42.667 42.667 42.667s42.667-19.103 42.667-42.667zM85.333 246.869c0-23.564-19.103-42.667-42.667-42.667s-42.667 19.103-42.667 42.667c0 23.564 19.103 42.667 42.667 42.667s42.667-19.103 42.667-42.667zM85.333 112.768c0-23.564-19.103-42.667-42.667-42.667s-42.667 19.103-42.667 42.667c0 23.564 19.103 42.667 42.667 42.667s42.667-19.103 42.667-42.667zM1024 783.232c0-23.564-19.103-42.667-42.667-42.667s-42.667 19.103-42.667 42.667c0 23.564 19.103 42.667 42.667 42.667s42.667-19.103 42.667-42.667zM1024 649.131c0-23.564-19.103-42.667-42.667-42.667s-42.667 19.103-42.667 42.667c0 23.564 19.103 42.667 42.667 42.667s42.667-19.103 42.667-42.667zM1024 515.029c0-23.564-19.103-42.667-42.667-42.667s-42.667 19.103-42.667 42.667c0 23.564 19.103 42.667 42.667 42.667s42.667-19.103 42.667-42.667zM1024 380.971c0-23.564-19.103-42.667-42.667-42.667s-42.667 19.103-42.667 42.667c0 23.564 19.103 42.667 42.667 42.667s42.667-19.103 42.667-42.667zM1024 246.869c0-23.564-19.103-42.667-42.667-42.667s-42.667 19.103-42.667 42.667c0 23.564 19.103 42.667 42.667 42.667s42.667-19.103 42.667-42.667zM1024 112.768c0-23.564-19.103-42.667-42.667-42.667s-42.667 19.103-42.667 42.667c0 23.564 19.103 42.667 42.667 42.667s42.667-19.103 42.667-42.667zM554.667 822.869c0-23.564-19.103-42.667-42.667-42.667s-42.667 19.103-42.667 42.667c0 23.564 19.103 42.667 42.667 42.667s42.667-19.103 42.667-42.667zM554.667 688.768c0-23.564-19.103-42.667-42.667-42.667s-42.667 19.103-42.667 42.667c0 23.564 19.103 42.667 42.667 42.667s42.667-19.103 42.667-42.667zM554.667 554.667c0-23.564-19.103-42.667-42.667-42.667s-42.667 19.103-42.667 42.667c0 23.564 19.103 42.667 42.667 42.667s42.667-19.103 42.667-42.667zM554.667 341.333c0-23.564-19.103-42.667-42.667-42.667s-42.667 19.103-42.667 42.667c0 23.564 19.103 42.667 42.667 42.667s42.667-19.103 42.667-42.667zM554.667 207.232c0-23.564-19.103-42.667-42.667-42.667s-42.667 19.103-42.667 42.667c0 23.564 19.103 42.667 42.667 42.667s42.667-19.103 42.667-42.667zM554.667 73.131c0-23.564-19.103-42.667-42.667-42.667s-42.667 19.103-42.667 42.667c0 23.564 19.103 42.667 42.667 42.667s42.667-19.103 42.667-42.667zM85.333-21.333c0-23.564-19.103-42.667-42.667-42.667s-42.667 19.103-42.667 42.667c0 23.564 19.103 42.667 42.667 42.667s42.667-19.103 42.667-42.667zM219.435 917.333c0-23.564-19.103-42.667-42.667-42.667s-42.667 19.103-42.667 42.667c0 23.564 19.103 42.667 42.667 42.667s42.667-19.103 42.667-42.667zM353.536 917.333c0-23.564-19.103-42.667-42.667-42.667s-42.667 19.103-42.667 42.667c0 23.564 19.103 42.667 42.667 42.667s42.667-19.103 42.667-42.667zM487.637 917.333c0-23.564-19.103-42.667-42.667-42.667s-42.667 19.103-42.667 42.667c0 23.564 19.103 42.667 42.667 42.667s42.667-19.103 42.667-42.667zM621.696 917.333c0-23.564-19.103-42.667-42.667-42.667s-42.667 19.103-42.667 42.667c0 23.564 19.103 42.667 42.667 42.667s42.667-19.103 42.667-42.667zM755.797 917.333c0-23.564-19.103-42.667-42.667-42.667s-42.667 19.103-42.667 42.667c0 23.564 19.103 42.667 42.667 42.667s42.667-19.103 42.667-42.667zM889.899 917.333c0-23.564-19.103-42.667-42.667-42.667s-42.667 19.103-42.667 42.667c0 23.564 19.103 42.667 42.667 42.667s42.667-19.103 42.667-42.667zM1024 917.333c0-23.564-19.103-42.667-42.667-42.667s-42.667 19.103-42.667 42.667c0 23.564 19.103 42.667 42.667 42.667s42.667-19.103 42.667-42.667zM219.435-21.333c0-23.564-19.103-42.667-42.667-42.667s-42.667 19.103-42.667 42.667c0 23.564 19.103 42.667 42.667 42.667s42.667-19.103 42.667-42.667zM353.536-21.333c0-23.564-19.103-42.667-42.667-42.667s-42.667 19.103-42.667 42.667c0 23.564 19.103 42.667 42.667 42.667s42.667-19.103 42.667-42.667zM487.637-21.333c0-23.564-19.103-42.667-42.667-42.667s-42.667 19.103-42.667 42.667c0 23.564 19.103 42.667 42.667 42.667s42.667-19.103 42.667-42.667zM621.696-21.333c0-23.564-19.103-42.667-42.667-42.667s-42.667 19.103-42.667 42.667c0 23.564 19.103 42.667 42.667 42.667s42.667-19.103 42.667-42.667zM755.797-21.333c0-23.564-19.103-42.667-42.667-42.667s-42.667 19.103-42.667 42.667c0 23.564 19.103 42.667 42.667 42.667s42.667-19.103 42.667-42.667zM889.899-21.333c0-23.564-19.103-42.667-42.667-42.667s-42.667 19.103-42.667 42.667c0 23.564 19.103 42.667 42.667 42.667s42.667-19.103 42.667-42.667zM1024-21.333c0-23.564-19.103-42.667-42.667-42.667s-42.667 19.103-42.667 42.667c0 23.564 19.103 42.667 42.667 42.667s42.667-19.103 42.667-42.667z" />
<glyph unicode="&#xe63a;" glyph-name="border-bottom" d="M981.333 21.333h-938.667c-23.595 0-42.667-19.072-42.667-42.667s19.072-42.667 42.667-42.667h938.667c23.595 0 42.667 19.072 42.667 42.667s-19.072 42.667-42.667 42.667zM85.333 917.333c0-23.564-19.103-42.667-42.667-42.667s-42.667 19.103-42.667 42.667c0 23.564 19.103 42.667 42.667 42.667s42.667-19.103 42.667-42.667zM85.333 783.232c0-23.564-19.103-42.667-42.667-42.667s-42.667 19.103-42.667 42.667c0 23.564 19.103 42.667 42.667 42.667s42.667-19.103 42.667-42.667zM85.333 649.131c0-23.564-19.103-42.667-42.667-42.667s-42.667 19.103-42.667 42.667c0 23.564 19.103 42.667 42.667 42.667s42.667-19.103 42.667-42.667zM85.333 515.029c0-23.564-19.103-42.667-42.667-42.667s-42.667 19.103-42.667 42.667c0 23.564 19.103 42.667 42.667 42.667s42.667-19.103 42.667-42.667zM85.333 380.971c0-23.564-19.103-42.667-42.667-42.667s-42.667 19.103-42.667 42.667c0 23.564 19.103 42.667 42.667 42.667s42.667-19.103 42.667-42.667zM85.333 246.869c0-23.564-19.103-42.667-42.667-42.667s-42.667 19.103-42.667 42.667c0 23.564 19.103 42.667 42.667 42.667s42.667-19.103 42.667-42.667zM85.333 112.768c0-23.564-19.103-42.667-42.667-42.667s-42.667 19.103-42.667 42.667c0 23.564 19.103 42.667 42.667 42.667s42.667-19.103 42.667-42.667zM1024 783.232c0-23.564-19.103-42.667-42.667-42.667s-42.667 19.103-42.667 42.667c0 23.564 19.103 42.667 42.667 42.667s42.667-19.103 42.667-42.667zM1024 649.131c0-23.564-19.103-42.667-42.667-42.667s-42.667 19.103-42.667 42.667c0 23.564 19.103 42.667 42.667 42.667s42.667-19.103 42.667-42.667zM1024 515.029c0-23.564-19.103-42.667-42.667-42.667s-42.667 19.103-42.667 42.667c0 23.564 19.103 42.667 42.667 42.667s42.667-19.103 42.667-42.667zM1024 380.971c0-23.564-19.103-42.667-42.667-42.667s-42.667 19.103-42.667 42.667c0 23.564 19.103 42.667 42.667 42.667s42.667-19.103 42.667-42.667zM1024 246.869c0-23.564-19.103-42.667-42.667-42.667s-42.667 19.103-42.667 42.667c0 23.564 19.103 42.667 42.667 42.667s42.667-19.103 42.667-42.667zM1024 112.768c0-23.564-19.103-42.667-42.667-42.667s-42.667 19.103-42.667 42.667c0 23.564 19.103 42.667 42.667 42.667s42.667-19.103 42.667-42.667zM554.667 801.536c0-23.564-19.103-42.667-42.667-42.667s-42.667 19.103-42.667 42.667c0 23.564 19.103 42.667 42.667 42.667s42.667-19.103 42.667-42.667zM554.667 667.435c0-23.564-19.103-42.667-42.667-42.667s-42.667 19.103-42.667 42.667c0 23.564 19.103 42.667 42.667 42.667s42.667-19.103 42.667-42.667zM554.667 533.333c0-23.564-19.103-42.667-42.667-42.667s-42.667 19.103-42.667 42.667c0 23.564 19.103 42.667 42.667 42.667s42.667-19.103 42.667-42.667zM554.667 362.667c0-23.564-19.103-42.667-42.667-42.667s-42.667 19.103-42.667 42.667c0 23.564 19.103 42.667 42.667 42.667s42.667-19.103 42.667-42.667zM554.667 228.565c0-23.564-19.103-42.667-42.667-42.667s-42.667 19.103-42.667 42.667c0 23.564 19.103 42.667 42.667 42.667s42.667-19.103 42.667-42.667zM554.667 94.464c0-23.564-19.103-42.667-42.667-42.667s-42.667 19.103-42.667 42.667c0 23.564 19.103 42.667 42.667 42.667s42.667-19.103 42.667-42.667zM219.435 917.333c0-23.564-19.103-42.667-42.667-42.667s-42.667 19.103-42.667 42.667c0 23.564 19.103 42.667 42.667 42.667s42.667-19.103 42.667-42.667zM353.536 917.333c0-23.564-19.103-42.667-42.667-42.667s-42.667 19.103-42.667 42.667c0 23.564 19.103 42.667 42.667 42.667s42.667-19.103 42.667-42.667zM487.637 917.333c0-23.564-19.103-42.667-42.667-42.667s-42.667 19.103-42.667 42.667c0 23.564 19.103 42.667 42.667 42.667s42.667-19.103 42.667-42.667zM621.696 917.333c0-23.564-19.103-42.667-42.667-42.667s-42.667 19.103-42.667 42.667c0 23.564 19.103 42.667 42.667 42.667s42.667-19.103 42.667-42.667zM755.797 917.333c0-23.564-19.103-42.667-42.667-42.667s-42.667 19.103-42.667 42.667c0 23.564 19.103 42.667 42.667 42.667s42.667-19.103 42.667-42.667zM889.899 917.333c0-23.564-19.103-42.667-42.667-42.667s-42.667 19.103-42.667 42.667c0 23.564 19.103 42.667 42.667 42.667s42.667-19.103 42.667-42.667zM1024 917.333c0-23.564-19.103-42.667-42.667-42.667s-42.667 19.103-42.667 42.667c0 23.564 19.103 42.667 42.667 42.667s42.667-19.103 42.667-42.667zM201.131 448c0-23.564-19.103-42.667-42.667-42.667s-42.667 19.103-42.667 42.667c0 23.564 19.103 42.667 42.667 42.667s42.667-19.103 42.667-42.667zM335.232 448c0-23.564-19.103-42.667-42.667-42.667s-42.667 19.103-42.667 42.667c0 23.564 19.103 42.667 42.667 42.667s42.667-19.103 42.667-42.667zM469.333 448c0-23.564-19.103-42.667-42.667-42.667s-42.667 19.103-42.667 42.667c0 23.564 19.103 42.667 42.667 42.667s42.667-19.103 42.667-42.667zM640 448c0-23.564-19.103-42.667-42.667-42.667s-42.667 19.103-42.667 42.667c0 23.564 19.103 42.667 42.667 42.667s42.667-19.103 42.667-42.667zM774.101 448c0-23.564-19.103-42.667-42.667-42.667s-42.667 19.103-42.667 42.667c0 23.564 19.103 42.667 42.667 42.667s42.667-19.103 42.667-42.667zM908.203 448c0-23.564-19.103-42.667-42.667-42.667s-42.667 19.103-42.667 42.667c0 23.564 19.103 42.667 42.667 42.667s42.667-19.103 42.667-42.667z" />
<glyph unicode="&#xe63b;" glyph-name="arrow-up-up" d="M542.208 478.251c-16.683 16.683-43.648 16.683-60.331 0l-469.333-469.333c-16.683-16.683-16.683-43.648 0-60.331s43.648-16.683 60.331 0l439.168 439.168 439.168-439.168c8.32-8.32 19.243-12.501 30.165-12.501s21.845 4.181 30.165 12.501c16.683 16.683 16.683 43.648 0 60.331l-469.333 469.333zM72.875 417.92l439.168 439.168 439.168-439.168c8.32-8.32 19.243-12.501 30.165-12.501s21.845 4.181 30.165 12.501c16.683 16.683 16.683 43.648 0 60.331l-469.333 469.333c-16.683 16.683-43.648 16.683-60.331 0l-469.333-469.333c-16.683-16.683-16.683-43.648 0-60.331s43.648-16.683 60.331 0z" />
<glyph unicode="&#xe63c;" glyph-name="arrow-right" d="M819.755 480.853l-560.768 469.333c-18.005 15.061-44.885 12.715-60.075-5.376-15.061-18.091-12.757-44.971 5.333-60.16l521.685-436.565-521.685-436.565c-18.091-15.147-20.437-42.069-5.333-60.117 8.405-10.069 20.565-15.275 32.768-15.275 9.685 0 19.328 3.285 27.349 9.899l560.768 469.333c9.771 8.149 15.317 20.139 15.317 32.768s-5.632 24.576-15.36 32.725z" />
<glyph unicode="&#xe63d;" glyph-name="arrow-right-right" d="M542.208 478.251l-469.333 469.333c-16.683 16.683-43.648 16.683-60.331 0s-16.683-43.648 0-60.331l439.168-439.168-439.168-439.168c-16.683-16.683-16.683-43.648 0-60.331 8.32-8.32 19.243-12.501 30.165-12.501s21.845 4.181 30.165 12.501l469.333 469.333c16.683 16.683 16.683 43.648 0 60.331zM1011.541 478.251l-469.333 469.333c-16.683 16.683-43.648 16.683-60.331 0s-16.683-43.648 0-60.331l439.168-439.168-439.168-439.168c-16.683-16.683-16.683-43.648 0-60.331 8.32-8.32 19.243-12.501 30.165-12.501s21.845 4.181 30.165 12.501l469.333 469.333c16.683 16.683 16.683 43.648 0 60.331z" />
<glyph unicode="&#xe63e;" glyph-name="arrow-left" d="M298.069 448.043l521.685 436.565c18.048 15.147 20.437 42.027 5.333 60.117-15.147 18.091-42.069 20.437-60.117 5.376l-560.811-469.333c-9.685-8.107-15.232-20.139-15.232-32.768s5.589-24.576 15.232-32.768l560.811-469.333c7.979-6.613 17.707-9.899 27.392-9.899 12.16 0 24.235 5.205 32.768 15.275 15.104 18.048 12.715 44.971-5.333 60.117l-521.728 436.651z" />
<glyph unicode="&#xe63f;" glyph-name="arrow-left-left" d="M572.373 448.043l439.168 439.168c16.683 16.683 16.683 43.648 0 60.331s-43.648 16.683-60.331 0l-469.333-469.333c-16.683-16.683-16.683-43.648 0-60.331l469.333-469.333c8.32-8.32 19.243-12.501 30.165-12.501s21.845 4.181 30.165 12.501c16.683 16.683 16.683 43.648 0 60.331l-439.168 439.168zM103.040 448.043l439.168 439.168c16.683 16.683 16.683 43.648 0 60.331s-43.648 16.683-60.331 0l-469.333-469.333c-16.683-16.683-16.683-43.648 0-60.331l469.333-469.333c8.32-8.32 19.243-12.501 30.165-12.501s21.845 4.181 30.165 12.501c16.683 16.683 16.683 43.648 0 60.331l-439.168 439.168z" />
<glyph unicode="&#xe640;" glyph-name="arrow-down-down" d="M481.877 417.92c8.32-8.32 19.243-12.501 30.165-12.501s21.845 4.181 30.165 12.501l469.333 469.333c16.683 16.683 16.683 43.648 0 60.331s-43.648 16.683-60.331 0l-439.168-439.168-439.168 439.168c-16.64 16.683-43.648 16.683-60.331 0s-16.683-43.648 0-60.331l469.333-469.333zM951.211 478.251l-439.168-439.168-439.168 439.168c-16.683 16.683-43.648 16.683-60.331 0s-16.683-43.648 0-60.331l469.333-469.333c8.32-8.32 19.243-12.501 30.165-12.501s21.845 4.181 30.165 12.501l469.333 469.333c16.683 16.683 16.683 43.648 0 60.331s-43.648 16.683-60.331 0z" />
<glyph unicode="&#xe641;" glyph-name="all-caps" d="M426.667 789.333h-384c-23.595 0-42.667-19.115-42.667-42.667v-85.333c0-23.595 19.072-42.667 42.667-42.667 23.552 0 42.667 19.072 42.667 42.667v42.667h106.667v-490.667h-21.333c-23.595 0-42.667-19.115-42.667-42.667 0-23.595 19.072-42.667 42.667-42.667h128c23.552 0 42.667 19.072 42.667 42.667 0 23.552-19.115 42.667-42.667 42.667h-21.333v490.667h106.667v-42.667c0-23.595 19.072-42.667 42.667-42.667 23.552 0 42.667 19.072 42.667 42.667v85.333c0 23.552-19.115 42.667-42.667 42.667zM981.333 789.333h-384c-23.595 0-42.667-19.115-42.667-42.667v-85.333c0-23.595 19.072-42.667 42.667-42.667 23.552 0 42.667 19.072 42.667 42.667v42.667h106.667v-490.667h-21.333c-23.595 0-42.667-19.115-42.667-42.667 0-23.595 19.072-42.667 42.667-42.667h128c23.552 0 42.667 19.072 42.667 42.667 0 23.552-19.115 42.667-42.667 42.667h-21.333v490.667h106.667v-42.667c0-23.595 19.072-42.667 42.667-42.667 23.552 0 42.667 19.072 42.667 42.667v85.333c0 23.552-19.115 42.667-42.667 42.667z" />
<glyph unicode="&#xe642;" glyph-name="align-right" d="M981.333 21.333h-938.667c-23.595 0-42.667-19.115-42.667-42.667 0-23.595 19.072-42.667 42.667-42.667h938.667c23.552 0 42.667 19.072 42.667 42.667 0 23.552-19.115 42.667-42.667 42.667zM213.333 832h768c23.552 0 42.667 19.072 42.667 42.667 0 23.552-19.115 42.667-42.667 42.667h-768c-23.595 0-42.667-19.115-42.667-42.667 0-23.595 19.072-42.667 42.667-42.667zM981.333 789.333h-640c-23.595 0-42.667-19.115-42.667-42.667 0-23.595 19.072-42.667 42.667-42.667h640c23.552 0 42.667 19.072 42.667 42.667 0 23.552-19.115 42.667-42.667 42.667zM981.333 661.333h-768c-23.595 0-42.667-19.115-42.667-42.667 0-23.595 19.072-42.667 42.667-42.667h768c23.552 0 42.667 19.072 42.667 42.667 0 23.552-19.115 42.667-42.667 42.667zM981.333 533.333h-938.667c-23.595 0-42.667-19.115-42.667-42.667 0-23.595 19.072-42.667 42.667-42.667h938.667c23.552 0 42.667 19.072 42.667 42.667 0 23.552-19.115 42.667-42.667 42.667zM981.333 405.333h-768c-23.595 0-42.667-19.115-42.667-42.667 0-23.595 19.072-42.667 42.667-42.667h768c23.552 0 42.667 19.072 42.667 42.667 0 23.552-19.115 42.667-42.667 42.667zM981.333 277.333h-640c-23.595 0-42.667-19.115-42.667-42.667 0-23.595 19.072-42.667 42.667-42.667h640c23.552 0 42.667 19.072 42.667 42.667 0 23.552-19.115 42.667-42.667 42.667zM981.333 149.333h-768c-23.595 0-42.667-19.115-42.667-42.667 0-23.595 19.072-42.667 42.667-42.667h768c23.552 0 42.667 19.072 42.667 42.667 0 23.552-19.115 42.667-42.667 42.667z" />
<glyph unicode="&#xe643;" glyph-name="flow-chart-1" d="M1002.667 277.333c11.776 0 21.333 9.557 21.333 21.333v128c0 11.776-9.557 21.333-21.333 21.333h-234.667v42.667c0 47.061-38.272 85.333-85.333 85.333h-298.667c-23.552 0-42.667 19.115-42.667 42.667v170.667h234.667c11.776 0 21.333 9.557 21.333 21.333v128c0 11.776-9.557 21.333-21.333 21.333h-554.667c-11.776 0-21.333-9.557-21.333-21.333v-128c0-11.776 9.557-21.333 21.333-21.333h277.333v-170.667c0-47.061 38.229-85.333 85.333-85.333h298.667c23.509 0 42.667-19.115 42.667-42.667v-42.667h-277.333c-11.776 0-21.333-9.557-21.333-21.333v-128c0-11.776 9.557-21.333 21.333-21.333h277.333v-170.667h-277.333c-11.776 0-21.333-9.557-21.333-21.333v-128c0-11.776 9.557-21.333 21.333-21.333h554.667c11.776 0 21.333 9.557 21.333 21.333v128c0 11.776-9.557 21.333-21.333 21.333h-234.667v170.667h234.667z" />
<glyph unicode="&#xe644;" glyph-name="align-left" d="M981.333 21.333h-938.667c-23.595 0-42.667-19.115-42.667-42.667 0-23.595 19.072-42.667 42.667-42.667h938.667c23.552 0 42.667 19.072 42.667 42.667 0 23.552-19.115 42.667-42.667 42.667zM42.667 832h810.667c23.552 0 42.667 19.072 42.667 42.667 0 23.552-19.115 42.667-42.667 42.667h-810.667c-23.595 0-42.667-19.115-42.667-42.667 0-23.595 19.072-42.667 42.667-42.667zM42.667 704h640c23.552 0 42.667 19.072 42.667 42.667 0 23.552-19.115 42.667-42.667 42.667h-640c-23.595 0-42.667-19.115-42.667-42.667 0-23.595 19.072-42.667 42.667-42.667zM42.667 576h725.333c23.552 0 42.667 19.072 42.667 42.667 0 23.552-19.115 42.667-42.667 42.667h-725.333c-23.595 0-42.667-19.115-42.667-42.667 0-23.595 19.072-42.667 42.667-42.667zM42.667 448h938.667c23.552 0 42.667 19.072 42.667 42.667 0 23.552-19.115 42.667-42.667 42.667h-938.667c-23.595 0-42.667-19.115-42.667-42.667 0-23.595 19.072-42.667 42.667-42.667zM42.667 320h768c23.552 0 42.667 19.072 42.667 42.667 0 23.552-19.115 42.667-42.667 42.667h-768c-23.595 0-42.667-19.115-42.667-42.667 0-23.595 19.072-42.667 42.667-42.667zM42.667 192h640c23.552 0 42.667 19.072 42.667 42.667 0 23.552-19.115 42.667-42.667 42.667h-640c-23.595 0-42.667-19.115-42.667-42.667 0-23.595 19.072-42.667 42.667-42.667zM42.667 64h768c23.552 0 42.667 19.072 42.667 42.667 0 23.552-19.115 42.667-42.667 42.667h-768c-23.595 0-42.667-19.115-42.667-42.667 0-23.595 19.072-42.667 42.667-42.667z" />
<glyph unicode="&#xe645;" glyph-name="align-justify" d="M746.667 21.333h-704c-23.595 0-42.667-19.115-42.667-42.667 0-23.595 19.072-42.667 42.667-42.667h704c23.552 0 42.667 19.072 42.667 42.667 0 23.552-19.115 42.667-42.667 42.667zM42.667 832h938.667c23.552 0 42.667 19.072 42.667 42.667 0 23.552-19.115 42.667-42.667 42.667h-938.667c-23.595 0-42.667-19.115-42.667-42.667 0-23.595 19.072-42.667 42.667-42.667zM981.333 789.333h-938.667c-23.595 0-42.667-19.115-42.667-42.667 0-23.595 19.072-42.667 42.667-42.667h938.667c23.552 0 42.667 19.072 42.667 42.667 0 23.552-19.115 42.667-42.667 42.667zM981.333 661.333h-938.667c-23.595 0-42.667-19.115-42.667-42.667 0-23.595 19.072-42.667 42.667-42.667h938.667c23.552 0 42.667 19.072 42.667 42.667 0 23.552-19.115 42.667-42.667 42.667zM981.333 533.333h-938.667c-23.595 0-42.667-19.115-42.667-42.667 0-23.595 19.072-42.667 42.667-42.667h938.667c23.552 0 42.667 19.072 42.667 42.667 0 23.552-19.115 42.667-42.667 42.667zM981.333 405.333h-938.667c-23.595 0-42.667-19.115-42.667-42.667 0-23.595 19.072-42.667 42.667-42.667h938.667c23.552 0 42.667 19.072 42.667 42.667 0 23.552-19.115 42.667-42.667 42.667zM981.333 277.333h-938.667c-23.595 0-42.667-19.115-42.667-42.667 0-23.595 19.072-42.667 42.667-42.667h938.667c23.552 0 42.667 19.072 42.667 42.667 0 23.552-19.115 42.667-42.667 42.667zM981.333 149.333h-938.667c-23.595 0-42.667-19.115-42.667-42.667 0-23.595 19.072-42.667 42.667-42.667h938.667c23.552 0 42.667 19.072 42.667 42.667 0 23.552-19.115 42.667-42.667 42.667z" />
<glyph unicode="&#xe646;" glyph-name="align-center" d="M981.333 21.333h-938.667c-23.595 0-42.667-19.115-42.667-42.667 0-23.595 19.072-42.667 42.667-42.667h938.667c23.552 0 42.667 19.072 42.667 42.667 0 23.552-19.115 42.667-42.667 42.667zM128 832h768c23.552 0 42.667 19.072 42.667 42.667 0 23.552-19.115 42.667-42.667 42.667h-768c-23.595 0-42.667-19.115-42.667-42.667 0-23.595 19.072-42.667 42.667-42.667zM746.667 704c23.552 0 42.667 19.072 42.667 42.667 0 23.552-19.115 42.667-42.667 42.667h-469.333c-23.595 0-42.667-19.115-42.667-42.667 0-23.595 19.072-42.667 42.667-42.667h469.333zM128 618.667c0-23.595 19.072-42.667 42.667-42.667h682.667c23.552 0 42.667 19.072 42.667 42.667 0 23.552-19.115 42.667-42.667 42.667h-682.667c-23.595 0-42.667-19.115-42.667-42.667zM42.667 448h938.667c23.552 0 42.667 19.072 42.667 42.667 0 23.552-19.115 42.667-42.667 42.667h-938.667c-23.595 0-42.667-19.115-42.667-42.667 0-23.595 19.072-42.667 42.667-42.667zM810.667 405.333h-597.333c-23.595 0-42.667-19.115-42.667-42.667 0-23.595 19.072-42.667 42.667-42.667h597.333c23.552 0 42.667 19.072 42.667 42.667 0 23.552-19.115 42.667-42.667 42.667zM704 192c23.552 0 42.667 19.072 42.667 42.667 0 23.552-19.115 42.667-42.667 42.667h-384c-23.595 0-42.667-19.115-42.667-42.667 0-23.595 19.072-42.667 42.667-42.667h384zM170.667 106.667c0-23.595 19.072-42.667 42.667-42.667h597.333c23.552 0 42.667 19.072 42.667 42.667 0 23.552-19.115 42.667-42.667 42.667h-597.333c-23.595 0-42.667-19.115-42.667-42.667z" />
<glyph unicode="&#xe647;" glyph-name="zoom-area-out" d="M1011.541 8.789l-145.195 145.835c18.517 29.44 29.653 64.043 29.653 101.376 0 105.856-86.144 192-192 192s-192-86.144-192-192c0-105.899 86.144-192 192-192 37.632 0 72.533 11.307 102.229 30.080l144.896-145.536c16.427-16.512 43.477-16.896 60.331-0.128 16.683 16.64 16.725 43.648 0.085 60.373zM789.333 234.667h-170.667c-11.776 0-21.333 9.557-21.333 21.333s9.557 21.333 21.333 21.333h170.667c11.776 0 21.333-9.557 21.333-21.333s-9.557-21.333-21.333-21.333zM42.667 618.667c-23.552 0-42.667 19.115-42.667 42.667v85.333c0 23.552 19.115 42.667 42.667 42.667s42.667-19.115 42.667-42.667v-85.333c0-23.552-19.115-42.667-42.667-42.667zM42.667 384c-23.552 0-42.667 19.115-42.667 42.667v85.333c0 23.552 19.115 42.667 42.667 42.667s42.667-19.115 42.667-42.667v-85.333c0-23.552-19.115-42.667-42.667-42.667zM704 618.667c-23.552 0-42.667 19.115-42.667 42.667v85.333c0 23.552 19.115 42.667 42.667 42.667s42.667-19.115 42.667-42.667v-85.333c0-23.552-19.115-42.667-42.667-42.667zM704 490.667c-23.552 0-42.667-10.496-42.667 0v42.667c0 23.552 19.115 42.667 42.667 42.667s42.667-19.115 42.667-42.667v-42.667c0-10.496-19.115 0-42.667 0zM85.333 213.333h-42.667c-23.552 0-42.667 19.115-42.667 42.667v42.667c0 23.552 19.115 42.667 42.667 42.667s42.667-19.115 42.667-42.667c23.552 0 42.667-19.115 42.667-42.667s-19.115-42.667-42.667-42.667zM42.667 832c-23.552 0-42.667 19.115-42.667 42.667v42.667c0 23.552 19.115 42.667 42.667 42.667h42.667c23.552 0 42.667-19.115 42.667-42.667s-19.115-42.667-42.667-42.667c0-23.552-19.115-42.667-42.667-42.667zM298.667 874.667h-85.333c-23.552 0-42.667 19.115-42.667 42.667s19.115 42.667 42.667 42.667h85.333c23.552 0 42.667-19.115 42.667-42.667s-19.115-42.667-42.667-42.667zM298.667 213.333h-85.333c-23.552 0-42.667 19.115-42.667 42.667s19.115 42.667 42.667 42.667h85.333c23.552 0 42.667-19.115 42.667-42.667s-19.115-42.667-42.667-42.667zM426.667 213.333c-23.552 0-42.667 19.072-42.667 42.624s19.072 42.667 42.624 42.709h42.624c13.397 0 0.043-19.115 0.043-42.667s10.496-42.667 0-42.667h-42.624zM533.333 874.667h-85.333c-23.552 0-42.667 19.115-42.667 42.667s19.115 42.667 42.667 42.667h85.333c23.552 0 42.667-19.115 42.667-42.667s-19.115-42.667-42.667-42.667zM704 832c-23.552 0-42.667 19.115-42.667 42.667-23.552 0-42.667 19.115-42.667 42.667s19.115 42.667 42.667 42.667h42.667c23.552 0 42.667-19.115 42.667-42.667v-42.667c0-23.552-19.115-42.667-42.667-42.667z" />
<glyph unicode="&#xe648;" glyph-name="zoom-area-in" d="M42.667 618.667c23.552 0 42.667 19.115 42.667 42.667v64c0 23.552-19.115 42.667-42.667 42.667s-42.667-19.115-42.667-42.667v-64c0-23.552 19.115-42.667 42.667-42.667zM42.667 405.333c23.552 0 42.667 19.115 42.667 42.667v64c0 23.552-19.115 42.667-42.667 42.667s-42.667-19.115-42.667-42.667v-64c0-23.552 19.115-42.667 42.667-42.667zM746.667 725.333c0 23.552-19.115 42.667-42.667 42.667s-42.667-19.115-42.667-42.667v-85.333c0-23.552 19.115-42.667 42.667-42.667s42.667 19.115 42.667 42.667v85.333zM704 554.667c-23.552 0-42.667-19.115-42.667-42.667v-25.387c13.867 2.56 28.075 4.053 42.667 4.053s28.8-1.493 42.667-4.053v25.387c0 23.552-19.115 42.667-42.667 42.667zM106.667 298.667h-21.333v21.333c0 23.552-19.115 42.667-42.667 42.667s-42.667-19.115-42.667-42.667v-64c0-23.552 19.115-42.667 42.667-42.667h64c23.552 0 42.667 19.115 42.667 42.667s-19.115 42.667-42.667 42.667zM106.667 960h-64c-23.552 0-42.667-19.115-42.667-42.667v-64c0-23.552 19.115-42.667 42.667-42.667s42.667 19.115 42.667 42.667v21.333h21.333c23.552 0 42.667 19.115 42.667 42.667s-19.115 42.667-42.667 42.667zM298.667 960h-64c-23.552 0-42.667-19.115-42.667-42.667s19.115-42.667 42.667-42.667h64c23.552 0 42.667 19.115 42.667 42.667s-19.115 42.667-42.667 42.667zM298.667 298.667h-64c-23.552 0-42.667-19.115-42.667-42.667s19.115-42.667 42.667-42.667h64c23.552 0 42.667 19.115 42.667 42.667s-19.115 42.667-42.667 42.667zM448 298.667c-23.552 0-42.667-19.115-42.667-42.667s19.115-42.667 42.667-42.667h25.429c-2.56 13.867-4.096 28.117-4.096 42.667s1.536 28.843 4.096 42.667h-25.429zM533.333 917.333c0 23.552-19.115 42.667-42.667 42.667h-42.667c-23.552 0-42.667-19.115-42.667-42.667s19.115-42.667 42.667-42.667h42.667c23.552 0 42.667 19.115 42.667 42.667zM640 874.667h21.333v-21.333c0-23.552 19.115-42.667 42.667-42.667s42.667 19.115 42.667 42.667v64c0 23.552-19.115 42.667-42.667 42.667h-64c-23.552 0-42.667-19.115-42.667-42.667s19.115-42.667 42.667-42.667zM1011.499 8.875l-145.152 145.152c18.688 29.568 29.653 64.512 29.653 101.973 0 105.899-86.144 192-192 192s-192-86.101-192-192 86.144-192 192-192c37.504 0 72.448 10.965 102.016 29.653l30.848-30.891 114.304-114.261c16.469-16.555 43.563-16.853 60.331 0 16.683 16.683 16.683 43.648 0 60.373zM725.333 170.667c0-11.733-9.557-21.333-21.333-21.333s-21.333 9.6-21.333 21.333v64h-64c-11.776 0-21.333 9.6-21.333 21.333 0 11.776 9.557 21.333 21.333 21.333h64v64c0 11.776 9.557 21.333 21.333 21.333s21.333-9.557 21.333-21.333v-64h64c11.776 0 21.333-9.557 21.333-21.333 0-11.733-9.557-21.333-21.333-21.333h-64v-64z" />
<glyph unicode="&#xe649;" glyph-name="wrench-double" d="M964.608 267.093c-52.053 52.096-128 69.419-196.992 46.165l-134.997 134.997 134.997 134.997c19.712-6.656 40.32-9.984 61.355-9.984 51.2 0 99.371 19.925 135.595 56.149 55.808 55.808 71.467 135.253 40.917 207.488-2.773 6.571-8.704 11.307-15.744 12.672-7.125 1.237-14.293-1.067-19.285-6.229l-75.349-78.293h-60.075v66.688l75.477 75.477c5.035 5.035 7.211 12.203 5.845 19.115-1.365 6.997-6.101 12.843-12.629 15.616-23.851 10.069-49.067 15.147-75.051 15.147-51.285 0-99.456-19.925-135.68-56.149-52.096-52.053-69.461-128-46.208-197.035l-134.955-134.997-134.912 134.997c23.339 69.035 5.973 144.981-46.165 197.035-55.765 55.808-135.253 71.509-207.445 41.003-6.613-2.816-11.307-8.704-12.672-15.829-1.28-7.040 1.024-14.208 6.229-19.243l78.251-75.349v-66.432h-66.432l-75.349 78.293c-4.992 5.205-12.245 7.467-19.285 6.229-7.040-1.365-12.928-6.101-15.744-12.672-30.336-71.765-14.251-153.813 40.96-209.109 51.797-51.755 127.787-68.864 197.035-45.355l134.741-134.4-134.784-134.784c-19.712 6.656-40.32 9.984-61.355 9.984-51.285 0-99.456-19.925-135.637-56.149-55.552-55.552-71.637-138.197-40.96-210.688 2.731-6.528 8.576-11.264 15.573-12.629 6.997-1.323 14.165 0.853 19.157 5.888l75.435 75.392h66.688v-60.075l-78.251-75.392c-5.163-4.949-7.509-12.203-6.229-19.243 1.323-7.040 6.059-12.971 12.672-15.787 23.851-10.069 48.896-15.147 74.624-15.147 50.517 0 98.219 19.883 134.443 56.192 51.499 51.456 68.267 127.403 44.587 196.992l134.997 134.997 134.997-135.040c-23.296-68.949-5.931-144.896 46.165-196.992 36.821-36.779 85.589-56.277 135.381-56.277 25.301 0 50.901 4.992 75.307 15.317 6.528 2.773 11.264 8.619 12.629 15.573 1.365 6.997-0.853 14.165-5.845 19.157l-75.477 75.435v60.331h60.331l75.435-75.392c4.992-5.035 12.16-7.296 19.157-5.888 6.997 1.365 12.8 6.101 15.573 12.629 30.592 72.405 14.507 155.051-41.045 210.603z" />
</font>
</defs>
</svg>
